#define MID_FILE_LEN 13927
static const u8 mid_file[MID_FILE_LEN] = {
0x4d,0x54,0x68,0x64,0x00,0x00,0x00,0x06,0x00,0x01,0x00,0x0a,0x01,0xe0,0x4d,0x54,
0x72,0x6b,0x00,0x00,0x00,0x22,0x00,0xff,0x58,0x04,0x04,0x02,0x18,0x08,0x00,0xff,
0x59,0x02,0x00,0x00,0x00,0xff,0x54,0x05,0x21,0x00,0x00,0x00,0x00,0x00,0xff,0x51,
0x03,0x09,0xf3,0x8d,0x00,0xff,0x2f,0x00,0x4d,0x54,0x72,0x6b,0x00,0x00,0x03,0x26,
0x00,0xff,0x20,0x01,0x00,0x00,0xff,0x03,0x13,0x4d,0x75,0x74,0x65,0x64,0x20,0x45,
0x6c,0x65,0x63,0x74,0x72,0x69,0x63,0x20,0x42,0x61,0x73,0x73,0x00,0xff,0x04,0x0b,
0x47,0x4d,0x2d,0x47,0x65,0x72,0x8a,0x74,0x20,0x20,0x31,0x00,0xc0,0x22,0x00,0xb0,
0x07,0x76,0x00,0x90,0x2b,0x46,0x84,0x35,0x80,0x2b,0x40,0x81,0x1b,0x90,0x2b,0x4b,
0x84,0x5d,0x80,0x2b,0x40,0x84,0x53,0x90,0x2b,0x45,0x85,0x14,0x80,0x2b,0x40,0x3c,
0x90,0x2b,0x46,0x85,0x50,0x29,0x43,0x7e,0x80,0x2b,0x40,0x82,0x62,0x90,0x26,0x45,
0x1b,0x80,0x29,0x40,0x84,0x68,0x26,0x40,0x4d,0x90,0x26,0x46,0x82,0x6e,0x80,0x26,
0x40,0x86,0x42,0x90,0x26,0x45,0x84,0x64,0x80,0x26,0x40,0x6c,0x90,0x26,0x45,0x84,
0x73,0x80,0x26,0x40,0x5d,0x90,0x29,0x4b,0x83,0x60,0x2b,0x44,0x20,0x80,0x29,0x40,
0x84,0x51,0x2b,0x40,0x5f,0x90,0x2b,0x45,0x84,0x47,0x80,0x2b,0x40,0x84,0x69,0x90,
0x2b,0x45,0x85,0x0c,0x80,0x2b,0x40,0x44,0x90,0x2b,0x44,0x85,0x17,0x80,0x2b,0x40,
0x39,0x90,0x2e,0x44,0x83,0x5e,0x80,0x2e,0x40,0x02,0x90,0x26,0x45,0x84,0x79,0x80,
0x26,0x40,0x57,0x90,0x26,0x46,0x85,0x10,0x80,0x26,0x40,0x84,0x20,0x90,0x26,0x45,
0x89,0x29,0x80,0x26,0x40,0x07,0x90,0x2b,0x43,0x81,0x70,0x29,0x3a,0x06,0x80,0x2b,
0x40,0x81,0x6a,0x90,0x26,0x44,0x01,0x80,0x29,0x40,0x81,0x41,0x26,0x40,0x2e,0x90,
0x2b,0x46,0x84,0x35,0x80,0x2b,0x40,0x81,0x1b,0x90,0x2b,0x4b,0x84,0x5d,0x80,0x2b,
0x40,0x84,0x53,0x90,0x2b,0x45,0x85,0x14,0x80,0x2b,0x40,0x3c,0x90,0x2b,0x46,0x85,
0x50,0x29,0x43,0x7e,0x80,0x2b,0x40,0x82,0x62,0x90,0x26,0x45,0x1b,0x80,0x29,0x40,
0x84,0x68,0x26,0x40,0x4d,0x90,0x26,0x46,0x82,0x6e,0x80,0x26,0x40,0x86,0x42,0x90,
0x26,0x45,0x84,0x64,0x80,0x26,0x40,0x6c,0x90,0x26,0x45,0x84,0x73,0x80,0x26,0x40,
0x5d,0x90,0x29,0x4b,0x83,0x60,0x2b,0x44,0x20,0x80,0x29,0x40,0x84,0x51,0x2b,0x40,
0x5f,0x90,0x2b,0x45,0x84,0x47,0x80,0x2b,0x40,0x84,0x69,0x90,0x2b,0x45,0x85,0x0c,
0x80,0x2b,0x40,0x44,0x90,0x2b,0x44,0x85,0x17,0x80,0x2b,0x40,0x39,0x90,0x2e,0x44,
0x83,0x5e,0x80,0x2e,0x40,0x02,0x90,0x26,0x45,0x84,0x79,0x80,0x26,0x40,0x57,0x90,
0x26,0x46,0x85,0x10,0x80,0x26,0x40,0x84,0x20,0x90,0x26,0x45,0x89,0x29,0x80,0x26,
0x40,0x07,0x90,0x2b,0x43,0x81,0x70,0x29,0x3a,0x06,0x80,0x2b,0x40,0x81,0x6a,0x90,
0x26,0x44,0x01,0x80,0x29,0x40,0x81,0x41,0x26,0x40,0x2e,0x90,0x2b,0x46,0x84,0x35,
0x80,0x2b,0x40,0x81,0x1b,0x90,0x2b,0x4b,0x84,0x5d,0x80,0x2b,0x40,0x84,0x53,0x90,
0x2b,0x45,0x85,0x14,0x80,0x2b,0x40,0x3c,0x90,0x2b,0x46,0x85,0x50,0x29,0x43,0x7e,
0x80,0x2b,0x40,0x82,0x62,0x90,0x26,0x45,0x1b,0x80,0x29,0x40,0x84,0x68,0x26,0x40,
0x4d,0x90,0x26,0x46,0x82,0x6e,0x80,0x26,0x40,0x86,0x42,0x90,0x26,0x45,0x84,0x64,
0x80,0x26,0x40,0x6c,0x90,0x26,0x45,0x84,0x73,0x80,0x26,0x40,0x5d,0x90,0x29,0x4b,
0x83,0x60,0x2b,0x44,0x20,0x80,0x29,0x40,0x84,0x51,0x2b,0x40,0x5f,0x90,0x2b,0x45,
0x84,0x47,0x80,0x2b,0x40,0x84,0x69,0x90,0x2b,0x45,0x85,0x0c,0x80,0x2b,0x40,0x44,
0x90,0x2b,0x44,0x85,0x17,0x80,0x2b,0x40,0x39,0x90,0x2e,0x44,0x83,0x5e,0x80,0x2e,
0x40,0x02,0x90,0x26,0x45,0x84,0x79,0x80,0x26,0x40,0x57,0x90,0x26,0x46,0x85,0x10,
0x80,0x26,0x40,0x84,0x20,0x90,0x26,0x45,0x89,0x29,0x80,0x26,0x40,0x07,0x90,0x2b,
0x43,0x81,0x70,0x29,0x3a,0x06,0x80,0x2b,0x40,0x81,0x6a,0x90,0x26,0x44,0x01,0x80,
0x29,0x40,0x81,0x41,0x26,0x40,0x2e,0x90,0x2b,0x46,0x84,0x35,0x80,0x2b,0x40,0x81,
0x1b,0x90,0x2b,0x4b,0x84,0x5d,0x80,0x2b,0x40,0x84,0x53,0x90,0x2b,0x45,0x85,0x14,
0x80,0x2b,0x40,0x3c,0x90,0x2b,0x46,0x85,0x50,0x29,0x43,0x7e,0x80,0x2b,0x40,0x82,
0x62,0x90,0x26,0x45,0x1b,0x80,0x29,0x40,0x84,0x68,0x26,0x40,0x4d,0x90,0x26,0x46,
0x82,0x6e,0x80,0x26,0x40,0x86,0x42,0x90,0x26,0x45,0x84,0x64,0x80,0x26,0x40,0x6c,
0x90,0x26,0x45,0x84,0x73,0x80,0x26,0x40,0x5d,0x90,0x29,0x4b,0x83,0x60,0x2b,0x44,
0x20,0x80,0x29,0x40,0x84,0x51,0x2b,0x40,0x5f,0x90,0x2b,0x45,0x84,0x47,0x80,0x2b,
0x40,0x84,0x69,0x90,0x2b,0x45,0x85,0x0c,0x80,0x2b,0x40,0x44,0x90,0x2b,0x44,0x85,
0x17,0x80,0x2b,0x40,0x39,0x90,0x2e,0x44,0x83,0x5e,0x80,0x2e,0x40,0x02,0x90,0x26,
0x45,0x84,0x79,0x80,0x26,0x40,0x57,0x90,0x26,0x46,0x85,0x10,0x80,0x26,0x40,0x84,
0x20,0x90,0x26,0x45,0x89,0x29,0x80,0x26,0x40,0x07,0x90,0x2b,0x43,0x81,0x70,0x29,
0x3a,0x06,0x80,0x2b,0x40,0x81,0x6a,0x90,0x26,0x44,0x01,0x80,0x29,0x40,0x81,0x41,
0x26,0x40,0x00,0xff,0x2f,0x00,0x4d,0x54,0x72,0x6b,0x00,0x00,0x01,0xc9,0x00,0xff,
0x20,0x01,0x01,0x00,0xff,0x03,0x0e,0x53,0x6d,0x6f,0x6f,0x74,0x68,0x20,0x53,0x74,
0x72,0x69,0x6e,0x67,0x73,0x00,0xff,0x04,0x0b,0x47,0x4d,0x2d,0x47,0x65,0x72,0x8a,
0x74,0x20,0x20,0x32,0x00,0xc1,0x31,0x00,0xb1,0x07,0x3a,0x00,0x91,0x37,0x46,0x01,
0x4a,0x45,0x06,0x46,0x43,0x05,0x43,0x45,0x9d,0x01,0x81,0x46,0x40,0x01,0x43,0x40,
0x17,0x37,0x40,0x45,0x91,0x32,0x48,0x02,0x45,0x66,0x04,0x41,0x50,0x05,0x43,0x48,
0x2a,0x81,0x43,0x40,0x9b,0x75,0x45,0x40,0x1e,0x32,0x40,0x0e,0x41,0x40,0x0e,0x4a,
0x40,0x50,0x91,0x46,0x50,0x06,0x4a,0x53,0x09,0x37,0x47,0x07,0x43,0x45,0x9d,0x36,
0x81,0x46,0x40,0x06,0x43,0x40,0x1e,0x37,0x40,0x52,0x91,0x45,0x50,0x05,0x32,0x45,
0x01,0x41,0x48,0x9d,0x1f,0x81,0x4a,0x40,0x02,0x45,0x40,0x03,0x41,0x40,0x02,0x32,
0x40,0x6e,0x91,0x37,0x46,0x07,0x4a,0x45,0x06,0x46,0x43,0x05,0x43,0x45,0x9d,0x01,
0x81,0x46,0x40,0x01,0x43,0x40,0x17,0x37,0x40,0x45,0x91,0x32,0x48,0x02,0x45,0x66,
0x04,0x41,0x50,0x05,0x43,0x48,0x2a,0x81,0x43,0x40,0x9b,0x75,0x45,0x40,0x1e,0x32,
0x40,0x0e,0x41,0x40,0x0e,0x4a,0x40,0x50,0x91,0x46,0x50,0x06,0x4a,0x53,0x09,0x37,
0x47,0x07,0x43,0x45,0x9d,0x36,0x81,0x46,0x40,0x06,0x43,0x40,0x1e,0x37,0x40,0x52,
0x91,0x45,0x50,0x05,0x32,0x45,0x01,0x41,0x48,0x9d,0x1f,0x81,0x4a,0x40,0x02,0x45,
0x40,0x03,0x41,0x40,0x02,0x32,0x40,0x6e,0x91,0x37,0x46,0x07,0x4a,0x45,0x06,0x46,
0x43,0x05,0x43,0x45,0x9d,0x01,0x81,0x46,0x40,0x01,0x43,0x40,0x17,0x37,0x40,0x45,
0x91,0x32,0x48,0x02,0x45,0x66,0x04,0x41,0x50,0x05,0x43,0x48,0x2a,0x81,0x43,0x40,
0x9b,0x75,0x45,0x40,0x1e,0x32,0x40,0x0e,0x41,0x40,0x0e,0x4a,0x40,0x50,0x91,0x46,
0x50,0x06,0x4a,0x53,0x09,0x37,0x47,0x07,0x43,0x45,0x9d,0x36,0x81,0x46,0x40,0x06,
0x43,0x40,0x1e,0x37,0x40,0x52,0x91,0x45,0x50,0x05,0x32,0x45,0x01,0x41,0x48,0x9d,
0x1f,0x81,0x4a,0x40,0x02,0x45,0x40,0x03,0x41,0x40,0x02,0x32,0x40,0x6e,0x91,0x37,
0x46,0x07,0x4a,0x45,0x06,0x46,0x43,0x05,0x43,0x45,0x9d,0x01,0x81,0x46,0x40,0x01,
0x43,0x40,0x17,0x37,0x40,0x45,0x91,0x32,0x48,0x02,0x45,0x66,0x04,0x41,0x50,0x05,
0x43,0x48,0x2a,0x81,0x43,0x40,0x9b,0x75,0x45,0x40,0x1e,0x32,0x40,0x0e,0x41,0x40,
0x0e,0x4a,0x40,0x50,0x91,0x46,0x50,0x06,0x4a,0x53,0x09,0x37,0x47,0x07,0x43,0x45,
0x9d,0x36,0x81,0x46,0x40,0x06,0x43,0x40,0x1e,0x37,0x40,0x52,0x91,0x45,0x50,0x05,
0x32,0x45,0x01,0x41,0x48,0x9d,0x1f,0x81,0x4a,0x40,0x02,0x45,0x40,0x03,0x41,0x40,
0x02,0x32,0x40,0x00,0xff,0x2f,0x00,0x4d,0x54,0x72,0x6b,0x00,0x00,0x0c,0x63,0x00,
0xff,0x20,0x01,0x02,0x00,0xff,0x03,0x13,0x50,0x6c,0x75,0x63,0x6b,0x20,0x43,0x68,
0x6f,0x72,0x64,0x73,0x20,0x42,0x72,0x69,0x67,0x68,0x74,0x00,0xff,0x04,0x0b,0x47,
0x4d,0x2d,0x47,0x65,0x72,0x8a,0x74,0x20,0x20,0x33,0x00,0xc2,0x58,0x00,0x92,0x54,
0x64,0x00,0x43,0x64,0x51,0x43,0x00,0x00,0x54,0x00,0x23,0x43,0x64,0x00,0x37,0x64,
0x20,0x43,0x00,0x35,0x37,0x00,0x23,0x4f,0x64,0x55,0x4f,0x00,0x23,0x4a,0x64,0x55,
0x4a,0x00,0x23,0x3c,0x64,0x55,0x3c,0x00,0x23,0x4f,0x64,0x55,0x4f,0x00,0x23,0x4a,
0x64,0x55,0x4a,0x00,0x23,0x3c,0x64,0x55,0x3c,0x00,0x23,0x43,0x64,0x55,0x43,0x00,
0x23,0x43,0x64,0x55,0x43,0x00,0x23,0x3c,0x64,0x55,0x3c,0x00,0x24,0x43,0x64,0x54,
0x43,0x00,0x24,0x43,0x64,0x54,0x43,0x00,0x23,0x3c,0x64,0x55,0x3c,0x00,0x23,0x48,
0x64,0x54,0x48,0x00,0x24,0x43,0x64,0x55,0x43,0x00,0x24,0x3c,0x64,0x54,0x3c,0x00,
0x23,0x48,0x64,0x55,0x48,0x00,0x23,0x3c,0x64,0x55,0x3c,0x00,0x23,0x43,0x64,0x54,
0x43,0x00,0x24,0x48,0x64,0x55,0x48,0x00,0x23,0x3c,0x64,0x55,0x3c,0x00,0x24,0x43,
0x64,0x54,0x43,0x00,0x23,0x4f,0x64,0x55,0x4f,0x00,0x24,0x48,0x64,0x54,0x48,0x00,
0x24,0x43,0x64,0x54,0x43,0x00,0x24,0x4f,0x64,0x54,0x4f,0x00,0x24,0x48,0x64,0x54,
0x48,0x00,0x24,0x3c,0x64,0x54,0x3c,0x00,0x23,0x5b,0x64,0x55,0x5b,0x00,0x23,0x48,
0x64,0x55,0x48,0x00,0x23,0x3c,0x64,0x55,0x3c,0x00,0x23,0x5b,0x64,0x55,0x5b,0x00,
0x23,0x43,0x64,0x54,0x43,0x00,0x24,0x54,0x64,0x55,0x54,0x00,0x23,0x5b,0x64,0x55,
0x5b,0x00,0x23,0x43,0x64,0x54,0x43,0x00,0x24,0x54,0x64,0x54,0x54,0x00,0x25,0x37,
0x64,0x54,0x37,0x00,0x24,0x4f,0x64,0x54,0x4f,0x00,0x23,0x54,0x64,0x55,0x54,0x00,
0x24,0x37,0x64,0x54,0x37,0x00,0x24,0x4f,0x64,0x54,0x4f,0x00,0x24,0x4a,0x64,0x54,
0x4a,0x00,0x24,0x3c,0x64,0x55,0x3c,0x00,0x22,0x4f,0x64,0x55,0x4f,0x00,0x24,0x4a,
0x64,0x54,0x4a,0x00,0x24,0x3c,0x64,0x54,0x3c,0x00,0x23,0x43,0x64,0x55,0x43,0x00,
0x23,0x43,0x64,0x55,0x43,0x00,0x23,0x3c,0x64,0x55,0x3c,0x00,0x23,0x43,0x64,0x55,
0x43,0x00,0x23,0x43,0x64,0x55,0x43,0x00,0x23,0x3c,0x64,0x55,0x3c,0x00,0x23,0x48,
0x64,0x55,0x48,0x00,0x23,0x43,0x64,0x54,0x43,0x00,0x25,0x3c,0x64,0x54,0x3c,0x00,
0x24,0x48,0x64,0x54,0x48,0x00,0x24,0x3c,0x64,0x54,0x3c,0x00,0x24,0x43,0x64,0x55,
0x43,0x00,0x22,0x48,0x64,0x55,0x48,0x00,0x23,0x3c,0x64,0x56,0x3c,0x00,0x22,0x43,
0x64,0x56,0x43,0x00,0x22,0x4f,0x64,0x55,0x4f,0x00,0x23,0x48,0x64,0x56,0x48,0x00,
0x22,0x43,0x64,0x55,0x43,0x00,0x23,0x4f,0x64,0x55,0x4f,0x00,0x23,0x48,0x64,0x55,
0x48,0x00,0x23,0x3c,0x64,0x55,0x3c,0x00,0x23,0x5b,0x64,0x55,0x5b,0x00,0x23,0x48,
0x64,0x55,0x48,0x00,0x23,0x3c,0x64,0x55,0x3c,0x00,0x23,0x5b,0x64,0x55,0x5b,0x00,
0x23,0x43,0x64,0x55,0x43,0x00,0x23,0x54,0x64,0x55,0x54,0x00,0x24,0x5b,0x64,0x54,
0x5b,0x00,0x24,0x43,0x64,0x54,0x43,0x00,0x24,0x54,0x64,0x54,0x54,0x00,0x23,0x37,
0x64,0x55,0x37,0x00,0x23,0x4f,0x64,0x55,0x4f,0x00,0x23,0x54,0x64,0x55,0x54,0x00,
0x23,0x37,0x64,0x55,0x37,0x00,0x23,0x4f,0x64,0x55,0x4f,0x00,0x23,0x4a,0x64,0x55,
0x4a,0x00,0x23,0x3c,0x64,0x55,0x3c,0x00,0x23,0x4f,0x64,0x54,0x4f,0x00,0x24,0x4a,
0x64,0x55,0x4a,0x00,0x23,0x3c,0x64,0x55,0x3c,0x00,0x24,0x43,0x64,0x54,0x43,0x00,
0x23,0x43,0x64,0x55,0x43,0x00,0x24,0x3c,0x64,0x54,0x3c,0x00,0x23,0x43,0x64,0x55,
0x43,0x00,0x24,0x43,0x64,0x54,0x43,0x00,0x24,0x3c,0x64,0x54,0x3c,0x00,0x24,0x48,
0x64,0x54,0x48,0x00,0x24,0x43,0x64,0x54,0x43,0x00,0x24,0x3c,0x64,0x54,0x3c,0x00,
0x23,0x48,0x64,0x55,0x48,0x00,0x23,0x3c,0x64,0x55,0x3c,0x00,0x23,0x43,0x64,0x55,
0x43,0x00,0x23,0x48,0x64,0x55,0x48,0x00,0x23,0x3c,0x64,0x55,0x3c,0x00,0x23,0x43,
0x64,0x54,0x43,0x00,0x25,0x4f,0x64,0x54,0x4f,0x00,0x23,0x48,0x64,0x55,0x48,0x00,
0x24,0x43,0x64,0x54,0x43,0x00,0x23,0x4f,0x64,0x55,0x4f,0x00,0x24,0x48,0x64,0x54,
0x48,0x00,0x24,0x3c,0x64,0x54,0x3c,0x00,0x24,0x5b,0x64,0x54,0x5b,0x00,0x23,0x48,
0x64,0x55,0x48,0x00,0x23,0x3c,0x64,0x55,0x3c,0x00,0x24,0x5b,0x64,0x54,0x5b,0x00,
0x23,0x43,0x64,0x55,0x43,0x00,0x23,0x54,0x64,0x55,0x54,0x00,0x23,0x5b,0x64,0x55,
0x5b,0x00,0x23,0x43,0x64,0x55,0x43,0x00,0x23,0x54,0x64,0x55,0x54,0x00,0x23,0x37,
0x64,0x55,0x37,0x00,0x24,0x4f,0x64,0x54,0x4f,0x00,0x24,0x54,0x64,0x54,0x54,0x00,
0x23,0x37,0x64,0x55,0x37,0x00,0x23,0x4f,0x64,0x55,0x4f,0x00,0x24,0x4a,0x64,0x54,
0x4a,0x00,0x23,0x3c,0x64,0x55,0x3c,0x00,0x24,0x4f,0x64,0x54,0x4f,0x00,0x24,0x4a,
0x64,0x55,0x4a,0x00,0x23,0x3c,0x64,0x53,0x3c,0x00,0x24,0x54,0x64,0x00,0x43,0x64,
0x55,0x43,0x00,0x00,0x54,0x00,0x23,0x43,0x64,0x00,0x37,0x64,0x20,0x43,0x00,0x35,
0x37,0x00,0x23,0x4f,0x64,0x55,0x4f,0x00,0x23,0x4a,0x64,0x55,0x4a,0x00,0x23,0x3c,
0x64,0x55,0x3c,0x00,0x23,0x4f,0x64,0x55,0x4f,0x00,0x23,0x4a,0x64,0x55,0x4a,0x00,
0x23,0x3c,0x64,0x55,0x3c,0x00,0x23,0x43,0x64,0x55,0x43,0x00,0x23,0x43,0x64,0x55,
0x43,0x00,0x23,0x3c,0x64,0x55,0x3c,0x00,0x24,0x43,0x64,0x54,0x43,0x00,0x24,0x43,
0x64,0x54,0x43,0x00,0x23,0x3c,0x64,0x55,0x3c,0x00,0x23,0x48,0x64,0x54,0x48,0x00,
0x24,0x43,0x64,0x55,0x43,0x00,0x24,0x3c,0x64,0x54,0x3c,0x00,0x23,0x48,0x64,0x55,
0x48,0x00,0x23,0x3c,0x64,0x55,0x3c,0x00,0x23,0x43,0x64,0x54,0x43,0x00,0x24,0x48,
0x64,0x55,0x48,0x00,0x23,0x3c,0x64,0x55,0x3c,0x00,0x24,0x43,0x64,0x54,0x43,0x00,
0x23,0x4f,0x64,0x55,0x4f,0x00,0x24,0x48,0x64,0x54,0x48,0x00,0x24,0x43,0x64,0x54,
0x43,0x00,0x24,0x4f,0x64,0x54,0x4f,0x00,0x24,0x48,0x64,0x54,0x48,0x00,0x24,0x3c,
0x64,0x54,0x3c,0x00,0x23,0x5b,0x64,0x55,0x5b,0x00,0x23,0x48,0x64,0x55,0x48,0x00,
0x23,0x3c,0x64,0x55,0x3c,0x00,0x23,0x5b,0x64,0x55,0x5b,0x00,0x23,0x43,0x64,0x54,
0x43,0x00,0x24,0x54,0x64,0x55,0x54,0x00,0x23,0x5b,0x64,0x55,0x5b,0x00,0x23,0x43,
0x64,0x54,0x43,0x00,0x24,0x54,0x64,0x54,0x54,0x00,0x25,0x37,0x64,0x54,0x37,0x00,
0x24,0x4f,0x64,0x54,0x4f,0x00,0x23,0x54,0x64,0x55,0x54,0x00,0x24,0x37,0x64,0x54,
0x37,0x00,0x24,0x4f,0x64,0x54,0x4f,0x00,0x24,0x4a,0x64,0x54,0x4a,0x00,0x24,0x3c,
0x64,0x55,0x3c,0x00,0x22,0x4f,0x64,0x55,0x4f,0x00,0x24,0x4a,0x64,0x54,0x4a,0x00,
0x24,0x3c,0x64,0x54,0x3c,0x00,0x23,0x43,0x64,0x55,0x43,0x00,0x23,0x43,0x64,0x55,
0x43,0x00,0x23,0x3c,0x64,0x55,0x3c,0x00,0x23,0x43,0x64,0x55,0x43,0x00,0x23,0x43,
0x64,0x55,0x43,0x00,0x23,0x3c,0x64,0x55,0x3c,0x00,0x23,0x48,0x64,0x55,0x48,0x00,
0x23,0x43,0x64,0x54,0x43,0x00,0x25,0x3c,0x64,0x54,0x3c,0x00,0x24,0x48,0x64,0x54,
0x48,0x00,0x24,0x3c,0x64,0x54,0x3c,0x00,0x24,0x43,0x64,0x55,0x43,0x00,0x22,0x48,
0x64,0x55,0x48,0x00,0x23,0x3c,0x64,0x56,0x3c,0x00,0x22,0x43,0x64,0x56,0x43,0x00,
0x22,0x4f,0x64,0x55,0x4f,0x00,0x23,0x48,0x64,0x56,0x48,0x00,0x22,0x43,0x64,0x55,
0x43,0x00,0x23,0x4f,0x64,0x55,0x4f,0x00,0x23,0x48,0x64,0x55,0x48,0x00,0x23,0x3c,
0x64,0x55,0x3c,0x00,0x23,0x5b,0x64,0x55,0x5b,0x00,0x23,0x48,0x64,0x55,0x48,0x00,
0x23,0x3c,0x64,0x55,0x3c,0x00,0x23,0x5b,0x64,0x55,0x5b,0x00,0x23,0x43,0x64,0x55,
0x43,0x00,0x23,0x54,0x64,0x55,0x54,0x00,0x24,0x5b,0x64,0x54,0x5b,0x00,0x24,0x43,
0x64,0x54,0x43,0x00,0x24,0x54,0x64,0x54,0x54,0x00,0x23,0x37,0x64,0x55,0x37,0x00,
0x23,0x4f,0x64,0x55,0x4f,0x00,0x23,0x54,0x64,0x55,0x54,0x00,0x23,0x37,0x64,0x55,
0x37,0x00,0x23,0x4f,0x64,0x55,0x4f,0x00,0x23,0x4a,0x64,0x55,0x4a,0x00,0x23,0x3c,
0x64,0x55,0x3c,0x00,0x23,0x4f,0x64,0x54,0x4f,0x00,0x24,0x4a,0x64,0x55,0x4a,0x00,
0x23,0x3c,0x64,0x55,0x3c,0x00,0x24,0x43,0x64,0x54,0x43,0x00,0x23,0x43,0x64,0x55,
0x43,0x00,0x24,0x3c,0x64,0x54,0x3c,0x00,0x23,0x43,0x64,0x55,0x43,0x00,0x24,0x43,
0x64,0x54,0x43,0x00,0x24,0x3c,0x64,0x54,0x3c,0x00,0x24,0x48,0x64,0x54,0x48,0x00,
0x24,0x43,0x64,0x54,0x43,0x00,0x24,0x3c,0x64,0x54,0x3c,0x00,0x23,0x48,0x64,0x55,
0x48,0x00,0x23,0x3c,0x64,0x55,0x3c,0x00,0x23,0x43,0x64,0x55,0x43,0x00,0x23,0x48,
0x64,0x55,0x48,0x00,0x23,0x3c,0x64,0x55,0x3c,0x00,0x23,0x43,0x64,0x54,0x43,0x00,
0x25,0x4f,0x64,0x54,0x4f,0x00,0x23,0x48,0x64,0x55,0x48,0x00,0x24,0x43,0x64,0x54,
0x43,0x00,0x23,0x4f,0x64,0x55,0x4f,0x00,0x24,0x48,0x64,0x54,0x48,0x00,0x24,0x3c,
0x64,0x54,0x3c,0x00,0x24,0x5b,0x64,0x54,0x5b,0x00,0x23,0x48,0x64,0x55,0x48,0x00,
0x23,0x3c,0x64,0x55,0x3c,0x00,0x24,0x5b,0x64,0x54,0x5b,0x00,0x23,0x43,0x64,0x55,
0x43,0x00,0x23,0x54,0x64,0x55,0x54,0x00,0x23,0x5b,0x64,0x55,0x5b,0x00,0x23,0x43,
0x64,0x55,0x43,0x00,0x23,0x54,0x64,0x55,0x54,0x00,0x23,0x37,0x64,0x55,0x37,0x00,
0x24,0x4f,0x64,0x54,0x4f,0x00,0x24,0x54,0x64,0x54,0x54,0x00,0x23,0x37,0x64,0x55,
0x37,0x00,0x23,0x4f,0x64,0x55,0x4f,0x00,0x24,0x4a,0x64,0x54,0x4a,0x00,0x23,0x3c,
0x64,0x55,0x3c,0x00,0x24,0x4f,0x64,0x54,0x4f,0x00,0x24,0x4a,0x64,0x55,0x4a,0x00,
0x23,0x3c,0x64,0x53,0x3c,0x00,0x24,0x54,0x64,0x00,0x43,0x64,0x55,0x43,0x00,0x00,
0x54,0x00,0x23,0x43,0x64,0x00,0x37,0x64,0x20,0x43,0x00,0x35,0x37,0x00,0x23,0x4f,
0x64,0x55,0x4f,0x00,0x23,0x4a,0x64,0x55,0x4a,0x00,0x23,0x3c,0x64,0x55,0x3c,0x00,
0x23,0x4f,0x64,0x55,0x4f,0x00,0x23,0x4a,0x64,0x55,0x4a,0x00,0x23,0x3c,0x64,0x55,
0x3c,0x00,0x23,0x43,0x64,0x55,0x43,0x00,0x23,0x43,0x64,0x55,0x43,0x00,0x23,0x3c,
0x64,0x55,0x3c,0x00,0x24,0x43,0x64,0x54,0x43,0x00,0x24,0x43,0x64,0x54,0x43,0x00,
0x23,0x3c,0x64,0x55,0x3c,0x00,0x23,0x48,0x64,0x54,0x48,0x00,0x24,0x43,0x64,0x55,
0x43,0x00,0x24,0x3c,0x64,0x54,0x3c,0x00,0x23,0x48,0x64,0x55,0x48,0x00,0x23,0x3c,
0x64,0x55,0x3c,0x00,0x23,0x43,0x64,0x54,0x43,0x00,0x24,0x48,0x64,0x55,0x48,0x00,
0x23,0x3c,0x64,0x55,0x3c,0x00,0x24,0x43,0x64,0x54,0x43,0x00,0x23,0x4f,0x64,0x55,
0x4f,0x00,0x24,0x48,0x64,0x54,0x48,0x00,0x24,0x43,0x64,0x54,0x43,0x00,0x24,0x4f,
0x64,0x54,0x4f,0x00,0x24,0x48,0x64,0x54,0x48,0x00,0x24,0x3c,0x64,0x54,0x3c,0x00,
0x23,0x5b,0x64,0x55,0x5b,0x00,0x23,0x48,0x64,0x55,0x48,0x00,0x23,0x3c,0x64,0x55,
0x3c,0x00,0x23,0x5b,0x64,0x55,0x5b,0x00,0x23,0x43,0x64,0x54,0x43,0x00,0x24,0x54,
0x64,0x55,0x54,0x00,0x23,0x5b,0x64,0x55,0x5b,0x00,0x23,0x43,0x64,0x54,0x43,0x00,
0x24,0x54,0x64,0x54,0x54,0x00,0x25,0x37,0x64,0x54,0x37,0x00,0x24,0x4f,0x64,0x54,
0x4f,0x00,0x23,0x54,0x64,0x55,0x54,0x00,0x24,0x37,0x64,0x54,0x37,0x00,0x24,0x4f,
0x64,0x54,0x4f,0x00,0x24,0x4a,0x64,0x54,0x4a,0x00,0x24,0x3c,0x64,0x55,0x3c,0x00,
0x22,0x4f,0x64,0x55,0x4f,0x00,0x24,0x4a,0x64,0x54,0x4a,0x00,0x24,0x3c,0x64,0x54,
0x3c,0x00,0x23,0x43,0x64,0x55,0x43,0x00,0x23,0x43,0x64,0x55,0x43,0x00,0x23,0x3c,
0x64,0x55,0x3c,0x00,0x23,0x43,0x64,0x55,0x43,0x00,0x23,0x43,0x64,0x55,0x43,0x00,
0x23,0x3c,0x64,0x55,0x3c,0x00,0x23,0x48,0x64,0x55,0x48,0x00,0x23,0x43,0x64,0x54,
0x43,0x00,0x25,0x3c,0x64,0x54,0x3c,0x00,0x24,0x48,0x64,0x54,0x48,0x00,0x24,0x3c,
0x64,0x54,0x3c,0x00,0x24,0x43,0x64,0x55,0x43,0x00,0x22,0x48,0x64,0x55,0x48,0x00,
0x23,0x3c,0x64,0x56,0x3c,0x00,0x22,0x43,0x64,0x56,0x43,0x00,0x22,0x4f,0x64,0x55,
0x4f,0x00,0x23,0x48,0x64,0x56,0x48,0x00,0x22,0x43,0x64,0x55,0x43,0x00,0x23,0x4f,
0x64,0x55,0x4f,0x00,0x23,0x48,0x64,0x55,0x48,0x00,0x23,0x3c,0x64,0x55,0x3c,0x00,
0x23,0x5b,0x64,0x55,0x5b,0x00,0x23,0x48,0x64,0x55,0x48,0x00,0x23,0x3c,0x64,0x55,
0x3c,0x00,0x23,0x5b,0x64,0x55,0x5b,0x00,0x23,0x43,0x64,0x55,0x43,0x00,0x23,0x54,
0x64,0x55,0x54,0x00,0x24,0x5b,0x64,0x54,0x5b,0x00,0x24,0x43,0x64,0x54,0x43,0x00,
0x24,0x54,0x64,0x54,0x54,0x00,0x23,0x37,0x64,0x55,0x37,0x00,0x23,0x4f,0x64,0x55,
0x4f,0x00,0x23,0x54,0x64,0x55,0x54,0x00,0x23,0x37,0x64,0x55,0x37,0x00,0x23,0x4f,
0x64,0x55,0x4f,0x00,0x23,0x4a,0x64,0x55,0x4a,0x00,0x23,0x3c,0x64,0x55,0x3c,0x00,
0x23,0x4f,0x64,0x54,0x4f,0x00,0x24,0x4a,0x64,0x55,0x4a,0x00,0x23,0x3c,0x64,0x55,
0x3c,0x00,0x24,0x43,0x64,0x54,0x43,0x00,0x23,0x43,0x64,0x55,0x43,0x00,0x24,0x3c,
0x64,0x54,0x3c,0x00,0x23,0x43,0x64,0x55,0x43,0x00,0x24,0x43,0x64,0x54,0x43,0x00,
0x24,0x3c,0x64,0x54,0x3c,0x00,0x24,0x48,0x64,0x54,0x48,0x00,0x24,0x43,0x64,0x54,
0x43,0x00,0x24,0x3c,0x64,0x54,0x3c,0x00,0x23,0x48,0x64,0x55,0x48,0x00,0x23,0x3c,
0x64,0x55,0x3c,0x00,0x23,0x43,0x64,0x55,0x43,0x00,0x23,0x48,0x64,0x55,0x48,0x00,
0x23,0x3c,0x64,0x55,0x3c,0x00,0x23,0x43,0x64,0x54,0x43,0x00,0x25,0x4f,0x64,0x54,
0x4f,0x00,0x23,0x48,0x64,0x55,0x48,0x00,0x24,0x43,0x64,0x54,0x43,0x00,0x23,0x4f,
0x64,0x55,0x4f,0x00,0x24,0x48,0x64,0x54,0x48,0x00,0x24,0x3c,0x64,0x54,0x3c,0x00,
0x24,0x5b,0x64,0x54,0x5b,0x00,0x23,0x48,0x64,0x55,0x48,0x00,0x23,0x3c,0x64,0x55,
0x3c,0x00,0x24,0x5b,0x64,0x54,0x5b,0x00,0x23,0x43,0x64,0x55,0x43,0x00,0x23,0x54,
0x64,0x55,0x54,0x00,0x23,0x5b,0x64,0x55,0x5b,0x00,0x23,0x43,0x64,0x55,0x43,0x00,
0x23,0x54,0x64,0x55,0x54,0x00,0x23,0x37,0x64,0x55,0x37,0x00,0x24,0x4f,0x64,0x54,
0x4f,0x00,0x24,0x54,0x64,0x54,0x54,0x00,0x23,0x37,0x64,0x55,0x37,0x00,0x23,0x4f,
0x64,0x55,0x4f,0x00,0x24,0x4a,0x64,0x54,0x4a,0x00,0x23,0x3c,0x64,0x55,0x3c,0x00,
0x24,0x4f,0x64,0x54,0x4f,0x00,0x24,0x4a,0x64,0x55,0x4a,0x00,0x23,0x3c,0x64,0x53,
0x3c,0x00,0x24,0x54,0x64,0x00,0x43,0x64,0x55,0x43,0x00,0x00,0x54,0x00,0x23,0x43,
0x64,0x00,0x37,0x64,0x20,0x43,0x00,0x35,0x37,0x00,0x23,0x4f,0x64,0x55,0x4f,0x00,
0x23,0x4a,0x64,0x55,0x4a,0x00,0x23,0x3c,0x64,0x55,0x3c,0x00,0x23,0x4f,0x64,0x55,
0x4f,0x00,0x23,0x4a,0x64,0x55,0x4a,0x00,0x23,0x3c,0x64,0x55,0x3c,0x00,0x23,0x43,
0x64,0x55,0x43,0x00,0x23,0x43,0x64,0x55,0x43,0x00,0x23,0x3c,0x64,0x55,0x3c,0x00,
0x24,0x43,0x64,0x54,0x43,0x00,0x24,0x43,0x64,0x54,0x43,0x00,0x23,0x3c,0x64,0x55,
0x3c,0x00,0x23,0x48,0x64,0x54,0x48,0x00,0x24,0x43,0x64,0x55,0x43,0x00,0x24,0x3c,
0x64,0x54,0x3c,0x00,0x23,0x48,0x64,0x55,0x48,0x00,0x23,0x3c,0x64,0x55,0x3c,0x00,
0x23,0x43,0x64,0x54,0x43,0x00,0x24,0x48,0x64,0x55,0x48,0x00,0x23,0x3c,0x64,0x55,
0x3c,0x00,0x24,0x43,0x64,0x54,0x43,0x00,0x23,0x4f,0x64,0x55,0x4f,0x00,0x24,0x48,
0x64,0x54,0x48,0x00,0x24,0x43,0x64,0x54,0x43,0x00,0x24,0x4f,0x64,0x54,0x4f,0x00,
0x24,0x48,0x64,0x54,0x48,0x00,0x24,0x3c,0x64,0x54,0x3c,0x00,0x23,0x5b,0x64,0x55,
0x5b,0x00,0x23,0x48,0x64,0x55,0x48,0x00,0x23,0x3c,0x64,0x55,0x3c,0x00,0x23,0x5b,
0x64,0x55,0x5b,0x00,0x23,0x43,0x64,0x54,0x43,0x00,0x24,0x54,0x64,0x55,0x54,0x00,
0x23,0x5b,0x64,0x55,0x5b,0x00,0x23,0x43,0x64,0x54,0x43,0x00,0x24,0x54,0x64,0x54,
0x54,0x00,0x25,0x37,0x64,0x54,0x37,0x00,0x24,0x4f,0x64,0x54,0x4f,0x00,0x23,0x54,
0x64,0x55,0x54,0x00,0x24,0x37,0x64,0x54,0x37,0x00,0x24,0x4f,0x64,0x54,0x4f,0x00,
0x24,0x4a,0x64,0x54,0x4a,0x00,0x24,0x3c,0x64,0x55,0x3c,0x00,0x22,0x4f,0x64,0x55,
0x4f,0x00,0x24,0x4a,0x64,0x54,0x4a,0x00,0x24,0x3c,0x64,0x54,0x3c,0x00,0x23,0x43,
0x64,0x55,0x43,0x00,0x23,0x43,0x64,0x55,0x43,0x00,0x23,0x3c,0x64,0x55,0x3c,0x00,
0x23,0x43,0x64,0x55,0x43,0x00,0x23,0x43,0x64,0x55,0x43,0x00,0x23,0x3c,0x64,0x55,
0x3c,0x00,0x23,0x48,0x64,0x55,0x48,0x00,0x23,0x43,0x64,0x54,0x43,0x00,0x25,0x3c,
0x64,0x54,0x3c,0x00,0x24,0x48,0x64,0x54,0x48,0x00,0x24,0x3c,0x64,0x54,0x3c,0x00,
0x24,0x43,0x64,0x55,0x43,0x00,0x22,0x48,0x64,0x55,0x48,0x00,0x23,0x3c,0x64,0x56,
0x3c,0x00,0x22,0x43,0x64,0x56,0x43,0x00,0x22,0x4f,0x64,0x55,0x4f,0x00,0x23,0x48,
0x64,0x56,0x48,0x00,0x22,0x43,0x64,0x55,0x43,0x00,0x23,0x4f,0x64,0x55,0x4f,0x00,
0x23,0x48,0x64,0x55,0x48,0x00,0x23,0x3c,0x64,0x55,0x3c,0x00,0x23,0x5b,0x64,0x55,
0x5b,0x00,0x23,0x48,0x64,0x55,0x48,0x00,0x23,0x3c,0x64,0x55,0x3c,0x00,0x23,0x5b,
0x64,0x55,0x5b,0x00,0x23,0x43,0x64,0x55,0x43,0x00,0x23,0x54,0x64,0x55,0x54,0x00,
0x24,0x5b,0x64,0x54,0x5b,0x00,0x24,0x43,0x64,0x54,0x43,0x00,0x24,0x54,0x64,0x54,
0x54,0x00,0x23,0x37,0x64,0x55,0x37,0x00,0x23,0x4f,0x64,0x55,0x4f,0x00,0x23,0x54,
0x64,0x55,0x54,0x00,0x23,0x37,0x64,0x55,0x37,0x00,0x23,0x4f,0x64,0x55,0x4f,0x00,
0x23,0x4a,0x64,0x55,0x4a,0x00,0x23,0x3c,0x64,0x55,0x3c,0x00,0x23,0x4f,0x64,0x54,
0x4f,0x00,0x24,0x4a,0x64,0x55,0x4a,0x00,0x23,0x3c,0x64,0x55,0x3c,0x00,0x24,0x43,
0x64,0x54,0x43,0x00,0x23,0x43,0x64,0x55,0x43,0x00,0x24,0x3c,0x64,0x54,0x3c,0x00,
0x23,0x43,0x64,0x55,0x43,0x00,0x24,0x43,0x64,0x54,0x43,0x00,0x24,0x3c,0x64,0x54,
0x3c,0x00,0x24,0x48,0x64,0x54,0x48,0x00,0x24,0x43,0x64,0x54,0x43,0x00,0x24,0x3c,
0x64,0x54,0x3c,0x00,0x23,0x48,0x64,0x55,0x48,0x00,0x23,0x3c,0x64,0x55,0x3c,0x00,
0x23,0x43,0x64,0x55,0x43,0x00,0x23,0x48,0x64,0x55,0x48,0x00,0x23,0x3c,0x64,0x55,
0x3c,0x00,0x23,0x43,0x64,0x54,0x43,0x00,0x25,0x4f,0x64,0x54,0x4f,0x00,0x23,0x48,
0x64,0x55,0x48,0x00,0x24,0x43,0x64,0x54,0x43,0x00,0x23,0x4f,0x64,0x55,0x4f,0x00,
0x24,0x48,0x64,0x54,0x48,0x00,0x24,0x3c,0x64,0x54,0x3c,0x00,0x24,0x5b,0x64,0x54,
0x5b,0x00,0x23,0x48,0x64,0x55,0x48,0x00,0x23,0x3c,0x64,0x55,0x3c,0x00,0x24,0x5b,
0x64,0x54,0x5b,0x00,0x23,0x43,0x64,0x55,0x43,0x00,0x23,0x54,0x64,0x55,0x54,0x00,
0x23,0x5b,0x64,0x55,0x5b,0x00,0x23,0x43,0x64,0x55,0x43,0x00,0x23,0x54,0x64,0x55,
0x54,0x00,0x23,0x37,0x64,0x55,0x37,0x00,0x24,0x4f,0x64,0x54,0x4f,0x00,0x24,0x54,
0x64,0x54,0x54,0x00,0x23,0x37,0x64,0x55,0x37,0x00,0x23,0x4f,0x64,0x55,0x4f,0x00,
0x24,0x4a,0x64,0x54,0x4a,0x00,0x23,0x3c,0x64,0x55,0x3c,0x00,0x24,0x4f,0x64,0x54,
0x4f,0x00,0x24,0x4a,0x64,0x55,0x4a,0x00,0x23,0x3c,0x64,0x53,0x3c,0x00,0x00,0xff,
0x2f,0x00,0x4d,0x54,0x72,0x6b,0x00,0x00,0x02,0x01,0x00,0xff,0x20,0x01,0x03,0x00,
0xff,0x03,0x0c,0x49,0x6e,0x64,0x69,0x61,0x6e,0x20,0x53,0x69,0x74,0x61,0x72,0x00,
0xff,0x04,0x0b,0x47,0x4d,0x2d,0x47,0x65,0x72,0x8a,0x74,0x20,0x20,0x34,0xf4,0x20,
0xc3,0x4d,0x83,0x60,0x93,0x43,0x7f,0x89,0x55,0x83,0x43,0x40,0x81,0x4b,0x93,0x43,
0x6c,0x81,0x67,0x83,0x43,0x40,0x09,0x93,0x45,0x78,0x81,0x70,0x46,0x61,0x09,0x83,
0x45,0x40,0x87,0x37,0x93,0x4a,0x7f,0x82,0x1e,0x83,0x46,0x40,0x82,0x57,0x4a,0x40,
0x5b,0x93,0x48,0x77,0x81,0x66,0x83,0x48,0x40,0x0a,0x93,0x45,0x7f,0x83,0x60,0x43,
0x66,0x0d,0x83,0x45,0x40,0x81,0x63,0x93,0x45,0x7f,0x5e,0x83,0x43,0x40,0x83,0x71,
0x45,0x40,0x81,0x01,0x93,0x43,0x6b,0x81,0x70,0x46,0x6b,0x81,0x01,0x83,0x43,0x40,
0x46,0x46,0x40,0x29,0x93,0x45,0x5b,0x8e,0x1e,0x83,0x45,0x40,0x62,0x93,0x43,0x7f,
0x8b,0x18,0x83,0x43,0x40,0x08,0x93,0x4a,0x7f,0x83,0x60,0x48,0x7f,0x04,0x83,0x4a,
0x40,0x83,0x5c,0x93,0x4a,0x5c,0x2d,0x83,0x48,0x40,0x81,0x43,0x93,0x48,0x78,0x31,
0x83,0x4a,0x40,0x84,0x01,0x48,0x40,0x81,0x1e,0x93,0x45,0x67,0x78,0x46,0x11,0x81,
0x70,0x46,0x50,0x4c,0x83,0x46,0x40,0x09,0x45,0x40,0x23,0x93,0x45,0x63,0x4f,0x83,
0x46,0x40,0x82,0x4c,0x45,0x40,0x45,0x93,0x41,0x64,0x81,0x70,0x43,0x6b,0x46,0x83,
0x41,0x40,0x81,0x5b,0x43,0x40,0x81,0x3f,0x93,0x41,0x62,0x81,0x70,0x43,0x78,0x81,
0x01,0x83,0x41,0x40,0x81,0x33,0x43,0x40,0x81,0x2c,0x93,0x3e,0x5c,0x8a,0x65,0x83,
0x3e,0x40,0x3b,0x93,0x3e,0x66,0x81,0x70,0x43,0x78,0x09,0x83,0x3e,0x40,0x81,0x4e,
0x43,0x40,0x19,0x93,0x45,0x78,0x81,0x70,0x43,0x78,0x36,0x83,0x45,0x40,0x88,0x0f,
0x43,0x40,0x6b,0x93,0x43,0x66,0x81,0x46,0x83,0x43,0x40,0x2a,0x93,0x45,0x6b,0x81,
0x45,0x83,0x45,0x40,0x2b,0x93,0x46,0x7f,0x89,0x1c,0x83,0x46,0x40,0x14,0x93,0x4a,
0x7f,0x83,0x60,0x48,0x78,0x21,0x83,0x4a,0x40,0x81,0x3f,0x48,0x40,0x10,0x93,0x46,
0x6e,0x83,0x48,0x83,0x46,0x40,0x18,0x93,0x48,0x0d,0x81,0x70,0x46,0x7f,0x2f,0x83,
0x48,0x40,0x85,0x21,0x93,0x45,0x5c,0x18,0x83,0x46,0x40,0x83,0x30,0x45,0x40,0x18,
0x93,0x43,0x6b,0x83,0x55,0x83,0x43,0x40,0x0b,0x93,0x45,0x6b,0x81,0x5f,0x83,0x45,
0x40,0x11,0x93,0x43,0x78,0x83,0x60,0x3e,0x66,0x17,0x83,0x43,0x40,0x85,0x21,0x3e,
0x40,0x18,0x93,0x45,0x66,0x81,0x70,0x43,0x5c,0x56,0x83,0x45,0x40,0x86,0x5c,0x43,
0x40,0x81,0x7e,0x93,0x4a,0x6b,0x81,0x70,0x4f,0x7f,0x10,0x83,0x4a,0x40,0x81,0x46,
0x4f,0x40,0x1a,0x93,0x4a,0x7f,0x8a,0x0a,0x83,0x4a,0x40,0x81,0x16,0x93,0x4f,0x78,
0x82,0x68,0x4c,0x7f,0x6d,0x83,0x4f,0x40,0x0b,0x93,0x4f,0x66,0x54,0x83,0x4c,0x40,
0x82,0x71,0x4f,0x40,0x1b,0x93,0x4d,0x66,0x81,0x5a,0x83,0x4d,0x40,0x16,0x93,0x4c,
0x71,0x84,0x6c,0x83,0x4c,0x40,0x64,0x93,0x4d,0x78,0x83,0x60,0x4a,0x7f,0x81,0x0c,
0x83,0x4d,0x40,0x89,0x29,0x4a,0x40,0x00,0xff,0x2f,0x00,0x4d,0x54,0x72,0x6b,0x00,
0x00,0x04,0x8d,0x00,0xff,0x20,0x01,0x09,0x00,0xff,0x03,0x0d,0x53,0x74,0x79,0x6c,
0x75,0x73,0x20,0x52,0x4d,0x58,0x20,0x23,0x31,0x00,0xff,0x04,0x0b,0x47,0x4d,0x2d,
0x47,0x65,0x72,0x8a,0x74,0x20,0x31,0x30,0x00,0xc9,0x19,0x00,0x99,0x24,0x78,0x78,
0x24,0x00,0x81,0x70,0x24,0x78,0x78,0x24,0x00,0x85,0x50,0x24,0x49,0x00,0x2b,0x53,
0x78,0x24,0x00,0x00,0x24,0x5e,0x78,0x89,0x24,0x00,0x83,0x60,0x99,0x24,0x78,0x00,
0x2b,0x00,0x78,0x24,0x00,0x81,0x70,0x24,0x78,0x78,0x24,0x00,0x85,0x50,0x24,0x49,
0x00,0x2b,0x53,0x78,0x24,0x00,0x00,0x24,0x5e,0x78,0x89,0x24,0x00,0x83,0x60,0x99,
0x24,0x78,0x00,0x2b,0x00,0x78,0x24,0x00,0x81,0x70,0x24,0x78,0x78,0x24,0x00,0x85,
0x50,0x24,0x49,0x00,0x2b,0x53,0x78,0x24,0x00,0x00,0x24,0x5e,0x78,0x89,0x24,0x00,
0x83,0x60,0x99,0x24,0x78,0x00,0x2b,0x00,0x78,0x24,0x00,0x81,0x70,0x24,0x78,0x78,
0x24,0x00,0x85,0x50,0x24,0x49,0x00,0x2b,0x53,0x78,0x24,0x00,0x00,0x24,0x5e,0x78,
0x89,0x24,0x00,0x83,0x60,0x99,0x24,0x78,0x00,0x2b,0x00,0x78,0x24,0x00,0x81,0x70,
0x24,0x78,0x78,0x24,0x00,0x85,0x50,0x24,0x49,0x00,0x2b,0x53,0x78,0x24,0x00,0x00,
0x24,0x5e,0x78,0x89,0x24,0x00,0x83,0x60,0x99,0x24,0x78,0x00,0x2b,0x00,0x78,0x24,
0x00,0x81,0x70,0x24,0x78,0x78,0x24,0x00,0x85,0x50,0x24,0x49,0x00,0x2b,0x53,0x78,
0x24,0x00,0x00,0x24,0x5e,0x78,0x89,0x24,0x00,0x83,0x60,0x99,0x24,0x78,0x00,0x2b,
0x00,0x78,0x24,0x00,0x81,0x70,0x24,0x78,0x78,0x24,0x00,0x85,0x50,0x24,0x49,0x00,
0x2b,0x53,0x78,0x24,0x00,0x00,0x24,0x5e,0x78,0x89,0x24,0x00,0x83,0x60,0x99,0x24,
0x78,0x00,0x2b,0x00,0x78,0x24,0x00,0x81,0x70,0x24,0x78,0x78,0x24,0x00,0x85,0x50,
0x24,0x49,0x00,0x2b,0x53,0x78,0x24,0x00,0x00,0x24,0x5e,0x78,0x89,0x24,0x00,0x83,
0x60,0x99,0x24,0x78,0x00,0x2b,0x00,0x78,0x24,0x00,0x81,0x70,0x24,0x78,0x78,0x24,
0x00,0x85,0x50,0x24,0x49,0x00,0x2b,0x53,0x78,0x24,0x00,0x00,0x24,0x5e,0x78,0x89,
0x24,0x00,0x83,0x60,0x99,0x24,0x78,0x00,0x2b,0x00,0x78,0x24,0x00,0x81,0x70,0x24,
0x78,0x78,0x24,0x00,0x85,0x50,0x24,0x49,0x00,0x2b,0x53,0x78,0x24,0x00,0x00,0x24,
0x5e,0x78,0x89,0x24,0x00,0x83,0x60,0x99,0x24,0x78,0x00,0x2b,0x00,0x78,0x24,0x00,
0x81,0x70,0x24,0x78,0x78,0x24,0x00,0x85,0x50,0x24,0x49,0x00,0x2b,0x53,0x78,0x24,
0x00,0x00,0x24,0x5e,0x78,0x89,0x24,0x00,0x83,0x60,0x99,0x24,0x78,0x00,0x2b,0x00,
0x78,0x24,0x00,0x81,0x70,0x24,0x78,0x78,0x24,0x00,0x85,0x50,0x24,0x49,0x00,0x2b,
0x53,0x78,0x24,0x00,0x00,0x24,0x5e,0x78,0x89,0x24,0x00,0x83,0x60,0x99,0x24,0x78,
0x00,0x2b,0x00,0x78,0x24,0x00,0x81,0x70,0x24,0x78,0x78,0x24,0x00,0x85,0x50,0x24,
0x49,0x00,0x2b,0x53,0x78,0x24,0x00,0x00,0x24,0x5e,0x78,0x89,0x24,0x00,0x83,0x60,
0x99,0x24,0x78,0x00,0x2b,0x00,0x78,0x24,0x00,0x81,0x70,0x24,0x78,0x78,0x24,0x00,
0x85,0x50,0x24,0x49,0x00,0x2b,0x53,0x78,0x24,0x00,0x00,0x24,0x5e,0x78,0x89,0x24,
0x00,0x83,0x60,0x99,0x24,0x78,0x00,0x2b,0x00,0x78,0x24,0x00,0x81,0x70,0x24,0x78,
0x78,0x24,0x00,0x85,0x50,0x24,0x49,0x00,0x2b,0x53,0x78,0x24,0x00,0x00,0x24,0x5e,
0x78,0x89,0x24,0x00,0x83,0x60,0x99,0x24,0x78,0x00,0x2b,0x00,0x78,0x24,0x00,0x81,
0x70,0x24,0x78,0x78,0x24,0x00,0x85,0x50,0x24,0x49,0x00,0x2b,0x53,0x78,0x24,0x00,
0x00,0x24,0x5e,0x78,0x89,0x24,0x00,0x83,0x60,0x99,0x24,0x78,0x00,0x2b,0x00,0x78,
0x24,0x00,0x81,0x70,0x24,0x78,0x78,0x24,0x00,0x85,0x50,0x24,0x49,0x00,0x2b,0x53,
0x78,0x24,0x00,0x00,0x24,0x5e,0x78,0x89,0x24,0x00,0x83,0x60,0x99,0x24,0x78,0x00,
0x2b,0x00,0x78,0x24,0x00,0x81,0x70,0x24,0x78,0x78,0x24,0x00,0x85,0x50,0x24,0x49,
0x00,0x2b,0x53,0x78,0x24,0x00,0x00,0x24,0x5e,0x78,0x89,0x24,0x00,0x83,0x60,0x99,
0x24,0x78,0x00,0x2b,0x00,0x78,0x24,0x00,0x81,0x70,0x24,0x78,0x78,0x24,0x00,0x85,
0x50,0x24,0x49,0x00,0x2b,0x53,0x78,0x24,0x00,0x00,0x24,0x5e,0x78,0x89,0x24,0x00,
0x83,0x60,0x99,0x24,0x78,0x00,0x2b,0x00,0x78,0x24,0x00,0x81,0x70,0x24,0x78,0x78,
0x24,0x00,0x85,0x50,0x24,0x49,0x00,0x2b,0x53,0x78,0x24,0x00,0x00,0x24,0x5e,0x78,
0x89,0x24,0x00,0x83,0x60,0x99,0x24,0x78,0x00,0x2b,0x00,0x78,0x24,0x00,0x81,0x70,
0x24,0x78,0x78,0x24,0x00,0x85,0x50,0x24,0x49,0x00,0x2b,0x53,0x78,0x24,0x00,0x00,
0x24,0x5e,0x78,0x89,0x24,0x00,0x83,0x60,0x99,0x24,0x78,0x00,0x2b,0x00,0x78,0x24,
0x00,0x81,0x70,0x24,0x78,0x78,0x24,0x00,0x85,0x50,0x24,0x49,0x00,0x2b,0x53,0x78,
0x24,0x00,0x00,0x24,0x5e,0x78,0x89,0x24,0x00,0x83,0x60,0x99,0x24,0x78,0x00,0x2b,
0x00,0x78,0x24,0x00,0x81,0x70,0x24,0x78,0x78,0x24,0x00,0x85,0x50,0x24,0x49,0x00,
0x2b,0x53,0x78,0x24,0x00,0x00,0x24,0x5e,0x78,0x89,0x24,0x00,0x83,0x60,0x99,0x24,
0x78,0x00,0x2b,0x00,0x78,0x24,0x00,0x81,0x70,0x24,0x78,0x78,0x24,0x00,0x85,0x50,
0x24,0x49,0x00,0x2b,0x53,0x78,0x24,0x00,0x00,0x24,0x5e,0x78,0x89,0x24,0x00,0x83,
0x60,0x99,0x24,0x78,0x00,0x2b,0x00,0x78,0x24,0x00,0x81,0x70,0x24,0x78,0x78,0x24,
0x00,0x85,0x50,0x24,0x49,0x00,0x2b,0x53,0x78,0x24,0x00,0x00,0x24,0x5e,0x78,0x89,
0x24,0x00,0x83,0x60,0x99,0x24,0x78,0x00,0x2b,0x00,0x78,0x24,0x00,0x81,0x70,0x24,
0x78,0x78,0x24,0x00,0x85,0x50,0x24,0x49,0x00,0x2b,0x53,0x78,0x24,0x00,0x00,0x24,
0x5e,0x78,0x89,0x24,0x00,0x83,0x60,0x99,0x24,0x78,0x00,0x2b,0x00,0x78,0x24,0x00,
0x81,0x70,0x24,0x78,0x78,0x24,0x00,0x85,0x50,0x24,0x49,0x00,0x2b,0x53,0x78,0x24,
0x00,0x00,0x24,0x5e,0x78,0x89,0x24,0x00,0x83,0x60,0x99,0x24,0x78,0x00,0x2b,0x00,
0x78,0x24,0x00,0x81,0x70,0x24,0x78,0x78,0x24,0x00,0x85,0x50,0x24,0x49,0x00,0x2b,
0x53,0x78,0x24,0x00,0x00,0x24,0x5e,0x78,0x89,0x24,0x00,0x83,0x60,0x99,0x24,0x78,
0x00,0x2b,0x00,0x78,0x24,0x00,0x81,0x70,0x24,0x78,0x78,0x24,0x00,0x85,0x50,0x24,
0x49,0x00,0x2b,0x53,0x78,0x24,0x00,0x00,0x24,0x5e,0x78,0x89,0x24,0x00,0x83,0x60,
0x99,0x24,0x78,0x00,0x2b,0x00,0x78,0x24,0x00,0x81,0x70,0x24,0x78,0x78,0x24,0x00,
0x85,0x50,0x24,0x49,0x00,0x2b,0x53,0x78,0x24,0x00,0x00,0x24,0x5e,0x78,0x89,0x24,
0x00,0x83,0x60,0x99,0x24,0x78,0x00,0x2b,0x00,0x78,0x24,0x00,0x81,0x70,0x24,0x78,
0x78,0x24,0x00,0x85,0x50,0x24,0x49,0x00,0x2b,0x53,0x78,0x24,0x00,0x00,0x24,0x5e,
0x78,0x89,0x24,0x00,0x83,0x60,0x99,0x24,0x78,0x00,0x2b,0x00,0x78,0x24,0x00,0x81,
0x70,0x24,0x78,0x78,0x24,0x00,0x85,0x50,0x24,0x49,0x00,0x2b,0x53,0x78,0x24,0x00,
0x00,0x24,0x5e,0x78,0x89,0x24,0x00,0x83,0x60,0x99,0x2b,0x00,0x00,0xff,0x2f,0x00,
0x4d,0x54,0x72,0x6b,0x00,0x00,0x04,0x32,0x00,0xff,0x20,0x01,0x09,0x00,0xff,0x03,
0x0d,0x53,0x74,0x79,0x6c,0x75,0x73,0x20,0x52,0x4d,0x58,0x20,0x23,0x32,0x00,0xff,
0x04,0x11,0x47,0x4d,0x20,0x4d,0x49,0x44,0x49,0x20,0x44,0x65,0x76,0x69,0x63,0x65,
0x20,0x31,0x30,0x00,0xc9,0x80,0x83,0x60,0x99,0x29,0x6a,0x00,0x35,0x2d,0x83,0x60,
0x89,0x29,0x00,0x00,0x35,0x00,0x83,0x60,0x99,0x29,0x6a,0x00,0x35,0x2d,0x83,0x60,
0x89,0x29,0x00,0x00,0x35,0x00,0x83,0x60,0x99,0x29,0x6a,0x00,0x35,0x2d,0x83,0x60,
0x89,0x29,0x00,0x00,0x35,0x00,0x83,0x60,0x99,0x29,0x6a,0x00,0x35,0x2d,0x83,0x60,
0x89,0x29,0x00,0x00,0x35,0x00,0x83,0x60,0x99,0x29,0x6a,0x00,0x35,0x2d,0x83,0x60,
0x89,0x29,0x00,0x00,0x35,0x00,0x83,0x60,0x99,0x29,0x6a,0x00,0x35,0x2d,0x83,0x60,
0x89,0x29,0x00,0x00,0x35,0x00,0x83,0x60,0x99,0x29,0x6a,0x00,0x35,0x2d,0x83,0x60,
0x89,0x29,0x00,0x00,0x35,0x00,0x83,0x60,0x99,0x29,0x6a,0x00,0x35,0x2d,0x83,0x60,
0x89,0x29,0x00,0x00,0x35,0x00,0x83,0x60,0x99,0x29,0x6a,0x00,0x35,0x2d,0x83,0x60,
0x89,0x29,0x00,0x00,0x35,0x00,0x83,0x60,0x99,0x29,0x6a,0x00,0x35,0x2d,0x83,0x60,
0x89,0x29,0x00,0x00,0x35,0x00,0x83,0x60,0x99,0x29,0x6a,0x00,0x35,0x2d,0x83,0x60,
0x89,0x29,0x00,0x00,0x35,0x00,0x83,0x60,0x99,0x29,0x6a,0x00,0x35,0x2d,0x83,0x60,
0x89,0x29,0x00,0x00,0x35,0x00,0x83,0x60,0x99,0x29,0x6a,0x00,0x35,0x2d,0x83,0x60,
0x89,0x29,0x00,0x00,0x35,0x00,0x83,0x60,0x99,0x29,0x6a,0x00,0x35,0x2d,0x83,0x60,
0x89,0x29,0x00,0x00,0x35,0x00,0x83,0x60,0x99,0x29,0x6a,0x00,0x35,0x2d,0x83,0x60,
0x89,0x29,0x00,0x00,0x35,0x00,0x83,0x60,0x99,0x29,0x6a,0x00,0x35,0x2d,0x83,0x60,
0x89,0x29,0x00,0x00,0x35,0x00,0x83,0x60,0x99,0x29,0x6a,0x00,0x35,0x2d,0x83,0x60,
0x89,0x29,0x00,0x00,0x35,0x00,0x83,0x60,0x99,0x29,0x6a,0x00,0x35,0x2d,0x83,0x60,
0x89,0x29,0x00,0x00,0x35,0x00,0x83,0x60,0x99,0x29,0x6a,0x00,0x35,0x2d,0x83,0x60,
0x89,0x29,0x00,0x00,0x35,0x00,0x83,0x60,0x99,0x29,0x6a,0x00,0x35,0x2d,0x83,0x60,
0x89,0x29,0x00,0x00,0x35,0x00,0x83,0x60,0x99,0x29,0x6a,0x00,0x35,0x2d,0x83,0x60,
0x89,0x29,0x00,0x00,0x35,0x00,0x83,0x60,0x99,0x29,0x6a,0x00,0x35,0x2d,0x83,0x60,
0x89,0x29,0x00,0x00,0x35,0x00,0x83,0x60,0x99,0x29,0x6a,0x00,0x35,0x2d,0x83,0x60,
0x89,0x29,0x00,0x00,0x35,0x00,0x83,0x60,0x99,0x29,0x6a,0x00,0x35,0x2d,0x83,0x60,
0x89,0x29,0x00,0x00,0x35,0x00,0x83,0x60,0x99,0x29,0x6a,0x00,0x35,0x2d,0x83,0x60,
0x89,0x29,0x00,0x00,0x35,0x00,0x83,0x60,0x99,0x29,0x6a,0x00,0x35,0x2d,0x83,0x60,
0x89,0x29,0x00,0x00,0x35,0x00,0x83,0x60,0x99,0x29,0x6a,0x00,0x35,0x2d,0x83,0x60,
0x89,0x29,0x00,0x00,0x35,0x00,0x83,0x60,0x99,0x29,0x6a,0x00,0x35,0x2d,0x83,0x60,
0x89,0x29,0x00,0x00,0x35,0x00,0x83,0x60,0x99,0x29,0x6a,0x00,0x35,0x2d,0x83,0x60,
0x89,0x29,0x00,0x00,0x35,0x00,0x83,0x60,0x99,0x29,0x6a,0x00,0x35,0x2d,0x83,0x60,
0x89,0x29,0x00,0x00,0x35,0x00,0x83,0x60,0x99,0x29,0x6a,0x00,0x35,0x2d,0x83,0x60,
0x89,0x29,0x00,0x00,0x35,0x00,0x83,0x60,0x99,0x29,0x6a,0x00,0x35,0x2d,0x83,0x60,
0x89,0x29,0x00,0x00,0x35,0x00,0x83,0x60,0x99,0x29,0x6a,0x00,0x35,0x2d,0x83,0x60,
0x89,0x29,0x00,0x00,0x35,0x00,0x83,0x60,0x99,0x29,0x6a,0x00,0x35,0x2d,0x83,0x60,
0x89,0x29,0x00,0x00,0x35,0x00,0x83,0x60,0x99,0x29,0x6a,0x00,0x35,0x2d,0x83,0x60,
0x89,0x29,0x00,0x00,0x35,0x00,0x83,0x60,0x99,0x29,0x6a,0x00,0x35,0x2d,0x83,0x60,
0x89,0x29,0x00,0x00,0x35,0x00,0x83,0x60,0x99,0x29,0x6a,0x00,0x35,0x2d,0x83,0x60,
0x89,0x29,0x00,0x00,0x35,0x00,0x83,0x60,0x99,0x29,0x6a,0x00,0x35,0x2d,0x83,0x60,
0x89,0x29,0x00,0x00,0x35,0x00,0x83,0x60,0x99,0x29,0x6a,0x00,0x35,0x2d,0x83,0x60,
0x89,0x29,0x00,0x00,0x35,0x00,0x83,0x60,0x99,0x29,0x6a,0x00,0x35,0x2d,0x83,0x60,
0x89,0x29,0x00,0x00,0x35,0x00,0x83,0x60,0x99,0x29,0x6a,0x00,0x35,0x2d,0x83,0x60,
0x89,0x29,0x00,0x00,0x35,0x00,0x83,0x60,0x99,0x29,0x6a,0x00,0x35,0x2d,0x83,0x60,
0x89,0x29,0x00,0x00,0x35,0x00,0x83,0x60,0x99,0x29,0x6a,0x00,0x35,0x2d,0x83,0x60,
0x89,0x29,0x00,0x00,0x35,0x00,0x83,0x60,0x99,0x29,0x6a,0x00,0x35,0x2d,0x83,0x60,
0x89,0x29,0x00,0x00,0x35,0x00,0x83,0x60,0x99,0x29,0x6a,0x00,0x35,0x2d,0x83,0x60,
0x89,0x29,0x00,0x00,0x35,0x00,0x83,0x60,0x99,0x29,0x6a,0x00,0x35,0x2d,0x83,0x60,
0x89,0x29,0x00,0x00,0x35,0x00,0x83,0x60,0x99,0x29,0x6a,0x00,0x35,0x2d,0x83,0x60,
0x89,0x29,0x00,0x00,0x35,0x00,0x83,0x60,0x99,0x29,0x6a,0x00,0x35,0x2d,0x83,0x60,
0x89,0x29,0x00,0x00,0x35,0x00,0x83,0x60,0x99,0x29,0x6a,0x00,0x35,0x2d,0x83,0x60,
0x89,0x29,0x00,0x00,0x35,0x00,0x83,0x60,0x99,0x29,0x6a,0x00,0x35,0x2d,0x83,0x60,
0x89,0x29,0x00,0x00,0x35,0x00,0x83,0x60,0x99,0x29,0x6a,0x00,0x35,0x2d,0x83,0x60,
0x89,0x29,0x00,0x00,0x35,0x00,0x83,0x60,0x99,0x29,0x6a,0x00,0x35,0x2d,0x83,0x60,
0x89,0x29,0x00,0x00,0x35,0x00,0x83,0x60,0x99,0x29,0x6a,0x00,0x35,0x2d,0x83,0x60,
0x89,0x29,0x00,0x00,0x35,0x00,0x83,0x60,0x99,0x29,0x6a,0x00,0x35,0x2d,0x83,0x60,
0x89,0x29,0x00,0x00,0x35,0x00,0x83,0x60,0x99,0x29,0x6a,0x00,0x35,0x2d,0x83,0x60,
0x89,0x29,0x00,0x00,0x35,0x00,0x83,0x60,0x99,0x29,0x6a,0x00,0x35,0x2d,0x83,0x60,
0x89,0x29,0x00,0x00,0x35,0x00,0x83,0x60,0x99,0x29,0x6a,0x00,0x35,0x2d,0x83,0x60,
0x89,0x29,0x00,0x00,0x35,0x00,0x83,0x60,0x99,0x29,0x6a,0x00,0x35,0x2d,0x83,0x60,
0x89,0x29,0x00,0x00,0x35,0x00,0x83,0x60,0x99,0x29,0x6a,0x00,0x35,0x2d,0x83,0x60,
0x89,0x29,0x00,0x00,0x35,0x00,0x83,0x60,0x99,0x29,0x6a,0x00,0x35,0x2d,0x83,0x60,
0x89,0x29,0x00,0x00,0x35,0x00,0x83,0x60,0x99,0x29,0x6a,0x00,0x35,0x2d,0x83,0x60,
0x89,0x29,0x00,0x00,0x35,0x00,0x83,0x60,0x99,0x29,0x6a,0x00,0x35,0x2d,0x83,0x60,
0x89,0x29,0x00,0x00,0x35,0x00,0x83,0x60,0x99,0x29,0x6a,0x00,0x35,0x2d,0x83,0x60,
0x89,0x29,0x00,0x00,0x35,0x00,0x83,0x60,0x99,0x29,0x6a,0x00,0x35,0x2d,0x83,0x60,
0x89,0x29,0x00,0x00,0x35,0x00,0x00,0xff,0x2f,0x00,0x4d,0x54,0x72,0x6b,0x00,0x00,
0x09,0x32,0x00,0xff,0x20,0x01,0x09,0x00,0xff,0x03,0x0d,0x53,0x74,0x79,0x6c,0x75,
0x73,0x20,0x52,0x4d,0x58,0x20,0x23,0x33,0x00,0xff,0x04,0x11,0x47,0x4d,0x20,0x4d,
0x49,0x44,0x49,0x20,0x44,0x65,0x76,0x69,0x63,0x65,0x20,0x31,0x30,0x00,0xc9,0x80,
0x00,0x99,0x2a,0x4a,0x78,0x89,0x2a,0x00,0x78,0x99,0x2a,0x4a,0x78,0x89,0x2a,0x00,
0x78,0x99,0x2a,0x4a,0x78,0x89,0x2a,0x00,0x78,0x99,0x2a,0x4a,0x78,0x89,0x2a,0x00,
0x78,0x99,0x2a,0x4a,0x78,0x89,0x2a,0x00,0x78,0x99,0x2a,0x4a,0x78,0x89,0x2a,0x00,
0x78,0x99,0x2c,0x4a,0x78,0x89,0x2c,0x00,0x00,0x99,0x2e,0x4a,0x78,0x89,0x2e,0x00,
0x00,0x99,0x2a,0x4a,0x78,0x89,0x2a,0x00,0x78,0x99,0x2a,0x4a,0x78,0x89,0x2a,0x00,
0x78,0x99,0x2a,0x4a,0x78,0x89,0x2a,0x00,0x78,0x99,0x2a,0x4a,0x78,0x89,0x2a,0x00,
0x78,0x99,0x2a,0x4a,0x78,0x89,0x2a,0x00,0x78,0x99,0x2a,0x4a,0x78,0x89,0x2a,0x00,
0x78,0x99,0x2a,0x4a,0x78,0x89,0x2a,0x00,0x78,0x99,0x2c,0x4a,0x78,0x89,0x2c,0x00,
0x00,0x99,0x2e,0x4a,0x78,0x89,0x2e,0x00,0x00,0x99,0x2a,0x4a,0x78,0x89,0x2a,0x00,
0x78,0x99,0x2a,0x4a,0x78,0x89,0x2a,0x00,0x78,0x99,0x2a,0x4a,0x78,0x89,0x2a,0x00,
0x78,0x99,0x2a,0x4a,0x78,0x89,0x2a,0x00,0x78,0x99,0x2a,0x4a,0x78,0x89,0x2a,0x00,
0x78,0x99,0x2a,0x4a,0x78,0x89,0x2a,0x00,0x78,0x99,0x2a,0x4a,0x78,0x89,0x2a,0x00,
0x78,0x99,0x2c,0x4a,0x78,0x89,0x2c,0x00,0x00,0x99,0x2e,0x4a,0x78,0x89,0x2e,0x00,
0x00,0x99,0x2a,0x4a,0x78,0x89,0x2a,0x00,0x78,0x99,0x2a,0x4a,0x78,0x89,0x2a,0x00,
0x78,0x99,0x2a,0x4a,0x78,0x89,0x2a,0x00,0x78,0x99,0x2a,0x4a,0x78,0x89,0x2a,0x00,
0x78,0x99,0x2a,0x4a,0x78,0x89,0x2a,0x00,0x78,0x99,0x2a,0x4a,0x78,0x89,0x2a,0x00,
0x78,0x99,0x2a,0x4a,0x78,0x89,0x2a,0x00,0x78,0x99,0x2c,0x4a,0x78,0x89,0x2c,0x00,
0x00,0x99,0x2e,0x4a,0x78,0x89,0x2e,0x00,0x00,0x99,0x2a,0x4a,0x78,0x89,0x2a,0x00,
0x78,0x99,0x2a,0x4a,0x78,0x89,0x2a,0x00,0x78,0x99,0x2a,0x4a,0x78,0x89,0x2a,0x00,
0x78,0x99,0x2a,0x4a,0x78,0x89,0x2a,0x00,0x78,0x99,0x2a,0x4a,0x78,0x89,0x2a,0x00,
0x78,0x99,0x2a,0x4a,0x78,0x89,0x2a,0x00,0x78,0x99,0x2a,0x4a,0x78,0x89,0x2a,0x00,
0x78,0x99,0x2c,0x4a,0x78,0x89,0x2c,0x00,0x00,0x99,0x2e,0x4a,0x78,0x89,0x2e,0x00,
0x00,0x99,0x2a,0x4a,0x78,0x89,0x2a,0x00,0x78,0x99,0x2a,0x4a,0x78,0x89,0x2a,0x00,
0x78,0x99,0x2a,0x4a,0x78,0x89,0x2a,0x00,0x78,0x99,0x2a,0x4a,0x78,0x89,0x2a,0x00,
0x78,0x99,0x2a,0x4a,0x78,0x89,0x2a,0x00,0x78,0x99,0x2a,0x4a,0x78,0x89,0x2a,0x00,
0x78,0x99,0x2a,0x4a,0x78,0x89,0x2a,0x00,0x78,0x99,0x2c,0x4a,0x78,0x89,0x2c,0x00,
0x00,0x99,0x2e,0x4a,0x78,0x89,0x2e,0x00,0x00,0x99,0x2a,0x4a,0x78,0x89,0x2a,0x00,
0x78,0x99,0x2a,0x4a,0x78,0x89,0x2a,0x00,0x78,0x99,0x2a,0x4a,0x78,0x89,0x2a,0x00,
0x78,0x99,0x2a,0x4a,0x78,0x89,0x2a,0x00,0x78,0x99,0x2a,0x4a,0x78,0x89,0x2a,0x00,
0x78,0x99,0x2a,0x4a,0x78,0x89,0x2a,0x00,0x78,0x99,0x2a,0x4a,0x78,0x89,0x2a,0x00,
0x78,0x99,0x2c,0x4a,0x78,0x89,0x2c,0x00,0x00,0x99,0x2e,0x4a,0x78,0x89,0x2e,0x00,
0x00,0x99,0x2a,0x4a,0x78,0x89,0x2a,0x00,0x78,0x99,0x2a,0x4a,0x78,0x89,0x2a,0x00,
0x78,0x99,0x2a,0x4a,0x78,0x89,0x2a,0x00,0x78,0x99,0x2a,0x4a,0x78,0x89,0x2a,0x00,
0x78,0x99,0x2a,0x4a,0x78,0x89,0x2a,0x00,0x78,0x99,0x2a,0x4a,0x78,0x89,0x2a,0x00,
0x78,0x99,0x2a,0x4a,0x78,0x89,0x2a,0x00,0x78,0x99,0x2c,0x4a,0x78,0x89,0x2c,0x00,
0x00,0x99,0x2e,0x4a,0x78,0x89,0x2e,0x00,0x00,0x99,0x2a,0x4a,0x78,0x89,0x2a,0x00,
0x78,0x99,0x2a,0x4a,0x78,0x89,0x2a,0x00,0x78,0x99,0x2a,0x4a,0x78,0x89,0x2a,0x00,
0x78,0x99,0x2a,0x4a,0x78,0x89,0x2a,0x00,0x78,0x99,0x2a,0x4a,0x78,0x89,0x2a,0x00,
0x78,0x99,0x2a,0x4a,0x78,0x89,0x2a,0x00,0x78,0x99,0x2a,0x4a,0x78,0x89,0x2a,0x00,
0x78,0x99,0x2c,0x4a,0x78,0x89,0x2c,0x00,0x00,0x99,0x2e,0x4a,0x78,0x89,0x2e,0x00,
0x00,0x99,0x2a,0x4a,0x78,0x89,0x2a,0x00,0x78,0x99,0x2a,0x4a,0x78,0x89,0x2a,0x00,
0x78,0x99,0x2a,0x4a,0x78,0x89,0x2a,0x00,0x78,0x99,0x2a,0x4a,0x78,0x89,0x2a,0x00,
0x78,0x99,0x2a,0x4a,0x78,0x89,0x2a,0x00,0x78,0x99,0x2a,0x4a,0x78,0x89,0x2a,0x00,
0x78,0x99,0x2a,0x4a,0x78,0x89,0x2a,0x00,0x78,0x99,0x2c,0x4a,0x78,0x89,0x2c,0x00,
0x00,0x99,0x2e,0x4a,0x78,0x89,0x2e,0x00,0x00,0x99,0x2a,0x4a,0x78,0x89,0x2a,0x00,
0x78,0x99,0x2a,0x4a,0x78,0x89,0x2a,0x00,0x78,0x99,0x2a,0x4a,0x78,0x89,0x2a,0x00,
0x78,0x99,0x2a,0x4a,0x78,0x89,0x2a,0x00,0x78,0x99,0x2a,0x4a,0x78,0x89,0x2a,0x00,
0x78,0x99,0x2a,0x4a,0x78,0x89,0x2a,0x00,0x78,0x99,0x2a,0x4a,0x78,0x89,0x2a,0x00,
0x78,0x99,0x2c,0x4a,0x78,0x89,0x2c,0x00,0x00,0x99,0x2e,0x4a,0x78,0x89,0x2e,0x00,
0x00,0x99,0x2a,0x4a,0x78,0x89,0x2a,0x00,0x78,0x99,0x2a,0x4a,0x78,0x89,0x2a,0x00,
0x78,0x99,0x2a,0x4a,0x78,0x89,0x2a,0x00,0x78,0x99,0x2a,0x4a,0x78,0x89,0x2a,0x00,
0x78,0x99,0x2a,0x4a,0x78,0x89,0x2a,0x00,0x78,0x99,0x2a,0x4a,0x78,0x89,0x2a,0x00,
0x78,0x99,0x2a,0x4a,0x78,0x89,0x2a,0x00,0x78,0x99,0x2c,0x4a,0x78,0x89,0x2c,0x00,
0x00,0x99,0x2e,0x4a,0x78,0x89,0x2e,0x00,0x00,0x99,0x2a,0x4a,0x78,0x89,0x2a,0x00,
0x78,0x99,0x2a,0x4a,0x78,0x89,0x2a,0x00,0x78,0x99,0x2a,0x4a,0x78,0x89,0x2a,0x00,
0x78,0x99,0x2a,0x4a,0x78,0x89,0x2a,0x00,0x78,0x99,0x2a,0x4a,0x78,0x89,0x2a,0x00,
0x78,0x99,0x2a,0x4a,0x78,0x89,0x2a,0x00,0x78,0x99,0x2a,0x4a,0x78,0x89,0x2a,0x00,
0x78,0x99,0x2c,0x4a,0x78,0x89,0x2c,0x00,0x00,0x99,0x2e,0x4a,0x78,0x89,0x2e,0x00,
0x00,0x99,0x2a,0x4a,0x78,0x89,0x2a,0x00,0x78,0x99,0x2a,0x4a,0x78,0x89,0x2a,0x00,
0x78,0x99,0x2a,0x4a,0x78,0x89,0x2a,0x00,0x78,0x99,0x2a,0x4a,0x78,0x89,0x2a,0x00,
0x78,0x99,0x2a,0x4a,0x78,0x89,0x2a,0x00,0x78,0x99,0x2a,0x4a,0x78,0x89,0x2a,0x00,
0x78,0x99,0x2a,0x4a,0x78,0x89,0x2a,0x00,0x78,0x99,0x2c,0x4a,0x78,0x89,0x2c,0x00,
0x00,0x99,0x2e,0x4a,0x78,0x89,0x2e,0x00,0x00,0x99,0x2a,0x4a,0x78,0x89,0x2a,0x00,
0x78,0x99,0x2a,0x4a,0x78,0x89,0x2a,0x00,0x78,0x99,0x2a,0x4a,0x78,0x89,0x2a,0x00,
0x78,0x99,0x2a,0x4a,0x78,0x89,0x2a,0x00,0x78,0x99,0x2a,0x4a,0x78,0x89,0x2a,0x00,
0x78,0x99,0x2a,0x4a,0x78,0x89,0x2a,0x00,0x78,0x99,0x2a,0x4a,0x78,0x89,0x2a,0x00,
0x78,0x99,0x2c,0x4a,0x78,0x89,0x2c,0x00,0x00,0x99,0x2e,0x4a,0x78,0x89,0x2e,0x00,
0x00,0x99,0x2a,0x4a,0x78,0x89,0x2a,0x00,0x78,0x99,0x2a,0x4a,0x78,0x89,0x2a,0x00,
0x78,0x99,0x2a,0x4a,0x78,0x89,0x2a,0x00,0x78,0x99,0x2a,0x4a,0x78,0x89,0x2a,0x00,
0x78,0x99,0x2a,0x4a,0x78,0x89,0x2a,0x00,0x78,0x99,0x2a,0x4a,0x78,0x89,0x2a,0x00,
0x78,0x99,0x2a,0x4a,0x78,0x89,0x2a,0x00,0x78,0x99,0x2c,0x4a,0x78,0x89,0x2c,0x00,
0x00,0x99,0x2e,0x4a,0x78,0x89,0x2e,0x00,0x00,0x99,0x2a,0x4a,0x78,0x89,0x2a,0x00,
0x78,0x99,0x2a,0x4a,0x78,0x89,0x2a,0x00,0x78,0x99,0x2a,0x4a,0x78,0x89,0x2a,0x00,
0x78,0x99,0x2a,0x4a,0x78,0x89,0x2a,0x00,0x78,0x99,0x2a,0x4a,0x78,0x89,0x2a,0x00,
0x78,0x99,0x2a,0x4a,0x78,0x89,0x2a,0x00,0x78,0x99,0x2a,0x4a,0x78,0x89,0x2a,0x00,
0x78,0x99,0x2c,0x4a,0x78,0x89,0x2c,0x00,0x00,0x99,0x2e,0x4a,0x78,0x89,0x2e,0x00,
0x00,0x99,0x2a,0x4a,0x78,0x89,0x2a,0x00,0x78,0x99,0x2a,0x4a,0x78,0x89,0x2a,0x00,
0x78,0x99,0x2a,0x4a,0x78,0x89,0x2a,0x00,0x78,0x99,0x2a,0x4a,0x78,0x89,0x2a,0x00,
0x78,0x99,0x2a,0x4a,0x78,0x89,0x2a,0x00,0x78,0x99,0x2a,0x4a,0x78,0x89,0x2a,0x00,
0x78,0x99,0x2a,0x4a,0x78,0x89,0x2a,0x00,0x78,0x99,0x2c,0x4a,0x78,0x89,0x2c,0x00,
0x00,0x99,0x2e,0x4a,0x78,0x89,0x2e,0x00,0x00,0x99,0x2a,0x4a,0x78,0x89,0x2a,0x00,
0x78,0x99,0x2a,0x4a,0x78,0x89,0x2a,0x00,0x78,0x99,0x2a,0x4a,0x78,0x89,0x2a,0x00,
0x78,0x99,0x2a,0x4a,0x78,0x89,0x2a,0x00,0x78,0x99,0x2a,0x4a,0x78,0x89,0x2a,0x00,
0x78,0x99,0x2a,0x4a,0x78,0x89,0x2a,0x00,0x78,0x99,0x2a,0x4a,0x78,0x89,0x2a,0x00,
0x78,0x99,0x2c,0x4a,0x78,0x89,0x2c,0x00,0x00,0x99,0x2e,0x4a,0x78,0x89,0x2e,0x00,
0x00,0x99,0x2a,0x4a,0x78,0x89,0x2a,0x00,0x78,0x99,0x2a,0x4a,0x78,0x89,0x2a,0x00,
0x78,0x99,0x2a,0x4a,0x78,0x89,0x2a,0x00,0x78,0x99,0x2a,0x4a,0x78,0x89,0x2a,0x00,
0x78,0x99,0x2a,0x4a,0x78,0x89,0x2a,0x00,0x78,0x99,0x2a,0x4a,0x78,0x89,0x2a,0x00,
0x78,0x99,0x2a,0x4a,0x78,0x89,0x2a,0x00,0x78,0x99,0x2c,0x4a,0x78,0x89,0x2c,0x00,
0x00,0x99,0x2e,0x4a,0x78,0x89,0x2e,0x00,0x00,0x99,0x2a,0x4a,0x78,0x89,0x2a,0x00,
0x78,0x99,0x2a,0x4a,0x78,0x89,0x2a,0x00,0x78,0x99,0x2a,0x4a,0x78,0x89,0x2a,0x00,
0x78,0x99,0x2a,0x4a,0x78,0x89,0x2a,0x00,0x78,0x99,0x2a,0x4a,0x78,0x89,0x2a,0x00,
0x78,0x99,0x2a,0x4a,0x78,0x89,0x2a,0x00,0x78,0x99,0x2a,0x4a,0x78,0x89,0x2a,0x00,
0x78,0x99,0x2c,0x4a,0x78,0x89,0x2c,0x00,0x00,0x99,0x2e,0x4a,0x78,0x89,0x2e,0x00,
0x00,0x99,0x2a,0x4a,0x78,0x89,0x2a,0x00,0x78,0x99,0x2a,0x4a,0x78,0x89,0x2a,0x00,
0x78,0x99,0x2a,0x4a,0x78,0x89,0x2a,0x00,0x78,0x99,0x2a,0x4a,0x78,0x89,0x2a,0x00,
0x78,0x99,0x2a,0x4a,0x78,0x89,0x2a,0x00,0x78,0x99,0x2a,0x4a,0x78,0x89,0x2a,0x00,
0x78,0x99,0x2a,0x4a,0x78,0x89,0x2a,0x00,0x78,0x99,0x2c,0x4a,0x78,0x89,0x2c,0x00,
0x00,0x99,0x2e,0x4a,0x78,0x89,0x2e,0x00,0x00,0x99,0x2a,0x4a,0x78,0x89,0x2a,0x00,
0x78,0x99,0x2a,0x4a,0x78,0x89,0x2a,0x00,0x78,0x99,0x2a,0x4a,0x78,0x89,0x2a,0x00,
0x78,0x99,0x2a,0x4a,0x78,0x89,0x2a,0x00,0x78,0x99,0x2a,0x4a,0x78,0x89,0x2a,0x00,
0x78,0x99,0x2a,0x4a,0x78,0x89,0x2a,0x00,0x78,0x99,0x2a,0x4a,0x78,0x89,0x2a,0x00,
0x78,0x99,0x2c,0x4a,0x78,0x89,0x2c,0x00,0x00,0x99,0x2e,0x4a,0x78,0x89,0x2e,0x00,
0x00,0x99,0x2a,0x4a,0x78,0x89,0x2a,0x00,0x78,0x99,0x2a,0x4a,0x78,0x89,0x2a,0x00,
0x78,0x99,0x2a,0x4a,0x78,0x89,0x2a,0x00,0x78,0x99,0x2a,0x4a,0x78,0x89,0x2a,0x00,
0x78,0x99,0x2a,0x4a,0x78,0x89,0x2a,0x00,0x78,0x99,0x2a,0x4a,0x78,0x89,0x2a,0x00,
0x78,0x99,0x2a,0x4a,0x78,0x89,0x2a,0x00,0x78,0x99,0x2c,0x4a,0x78,0x89,0x2c,0x00,
0x00,0x99,0x2e,0x4a,0x78,0x89,0x2e,0x00,0x00,0x99,0x2a,0x4a,0x78,0x89,0x2a,0x00,
0x78,0x99,0x2a,0x4a,0x78,0x89,0x2a,0x00,0x78,0x99,0x2a,0x4a,0x78,0x89,0x2a,0x00,
0x78,0x99,0x2a,0x4a,0x78,0x89,0x2a,0x00,0x78,0x99,0x2a,0x4a,0x78,0x89,0x2a,0x00,
0x78,0x99,0x2a,0x4a,0x78,0x89,0x2a,0x00,0x78,0x99,0x2a,0x4a,0x78,0x89,0x2a,0x00,
0x78,0x99,0x2c,0x4a,0x78,0x89,0x2c,0x00,0x00,0x99,0x2e,0x4a,0x78,0x89,0x2e,0x00,
0x00,0x99,0x2a,0x4a,0x78,0x89,0x2a,0x00,0x78,0x99,0x2a,0x4a,0x78,0x89,0x2a,0x00,
0x78,0x99,0x2a,0x4a,0x78,0x89,0x2a,0x00,0x78,0x99,0x2a,0x4a,0x78,0x89,0x2a,0x00,
0x78,0x99,0x2a,0x4a,0x78,0x89,0x2a,0x00,0x78,0x99,0x2a,0x4a,0x78,0x89,0x2a,0x00,
0x78,0x99,0x2a,0x4a,0x78,0x89,0x2a,0x00,0x78,0x99,0x2c,0x4a,0x78,0x89,0x2c,0x00,
0x00,0x99,0x2e,0x4a,0x78,0x89,0x2e,0x00,0x00,0x99,0x2a,0x4a,0x78,0x89,0x2a,0x00,
0x78,0x99,0x2a,0x4a,0x78,0x89,0x2a,0x00,0x78,0x99,0x2a,0x4a,0x78,0x89,0x2a,0x00,
0x78,0x99,0x2a,0x4a,0x78,0x89,0x2a,0x00,0x78,0x99,0x2a,0x4a,0x78,0x89,0x2a,0x00,
0x78,0x99,0x2a,0x4a,0x78,0x89,0x2a,0x00,0x78,0x99,0x2a,0x4a,0x78,0x89,0x2a,0x00,
0x78,0x99,0x2c,0x4a,0x78,0x89,0x2c,0x00,0x00,0x99,0x2e,0x4a,0x78,0x89,0x2e,0x00,
0x00,0x99,0x2a,0x4a,0x78,0x89,0x2a,0x00,0x78,0x99,0x2a,0x4a,0x78,0x89,0x2a,0x00,
0x78,0x99,0x2a,0x4a,0x78,0x89,0x2a,0x00,0x78,0x99,0x2a,0x4a,0x78,0x89,0x2a,0x00,
0x78,0x99,0x2a,0x4a,0x78,0x89,0x2a,0x00,0x78,0x99,0x2a,0x4a,0x78,0x89,0x2a,0x00,
0x78,0x99,0x2a,0x4a,0x78,0x89,0x2a,0x00,0x78,0x99,0x2c,0x4a,0x78,0x89,0x2c,0x00,
0x00,0x99,0x2e,0x4a,0x78,0x89,0x2e,0x00,0x00,0x99,0x2a,0x4a,0x78,0x89,0x2a,0x00,
0x78,0x99,0x2a,0x4a,0x78,0x89,0x2a,0x00,0x78,0x99,0x2a,0x4a,0x78,0x89,0x2a,0x00,
0x78,0x99,0x2a,0x4a,0x78,0x89,0x2a,0x00,0x78,0x99,0x2a,0x4a,0x78,0x89,0x2a,0x00,
0x78,0x99,0x2a,0x4a,0x78,0x89,0x2a,0x00,0x78,0x99,0x2a,0x4a,0x78,0x89,0x2a,0x00,
0x78,0x99,0x2c,0x4a,0x78,0x89,0x2c,0x00,0x00,0x99,0x2e,0x4a,0x78,0x89,0x2e,0x00,
0x00,0x99,0x2a,0x4a,0x78,0x89,0x2a,0x00,0x78,0x99,0x2a,0x4a,0x78,0x89,0x2a,0x00,
0x78,0x99,0x2a,0x4a,0x78,0x89,0x2a,0x00,0x78,0x99,0x2a,0x4a,0x78,0x89,0x2a,0x00,
0x78,0x99,0x2a,0x4a,0x78,0x89,0x2a,0x00,0x78,0x99,0x2a,0x4a,0x78,0x89,0x2a,0x00,
0x78,0x99,0x2a,0x4a,0x78,0x89,0x2a,0x00,0x78,0x99,0x2c,0x4a,0x78,0x89,0x2c,0x00,
0x00,0x99,0x2e,0x4a,0x78,0x89,0x2e,0x00,0x00,0x99,0x2a,0x4a,0x78,0x89,0x2a,0x00,
0x78,0x99,0x2a,0x4a,0x78,0x89,0x2a,0x00,0x78,0x99,0x2a,0x4a,0x78,0x89,0x2a,0x00,
0x78,0x99,0x2a,0x4a,0x78,0x89,0x2a,0x00,0x78,0x99,0x2a,0x4a,0x78,0x89,0x2a,0x00,
0x78,0x99,0x2a,0x4a,0x78,0x89,0x2a,0x00,0x78,0x99,0x2a,0x4a,0x78,0x89,0x2a,0x00,
0x78,0x99,0x2c,0x4a,0x78,0x89,0x2c,0x00,0x00,0x99,0x2e,0x4a,0x78,0x89,0x2e,0x00,
0x00,0x99,0x2a,0x4a,0x78,0x89,0x2a,0x00,0x78,0x99,0x2a,0x4a,0x78,0x89,0x2a,0x00,
0x78,0x99,0x2a,0x4a,0x78,0x89,0x2a,0x00,0x78,0x99,0x2a,0x4a,0x78,0x89,0x2a,0x00,
0x78,0x99,0x2a,0x4a,0x78,0x89,0x2a,0x00,0x78,0x99,0x2a,0x4a,0x78,0x89,0x2a,0x00,
0x78,0x99,0x2a,0x4a,0x78,0x89,0x2a,0x00,0x78,0x99,0x2c,0x4a,0x78,0x89,0x2c,0x00,
0x00,0x99,0x2e,0x4a,0x78,0x89,0x2e,0x00,0x00,0x99,0x2a,0x4a,0x78,0x89,0x2a,0x00,
0x00,0xff,0x2f,0x00,0x4d,0x54,0x72,0x6b,0x00,0x00,0x0c,0x11,0x00,0xff,0x20,0x01,
0x09,0x00,0xff,0x03,0x0d,0x53,0x74,0x79,0x6c,0x75,0x73,0x20,0x52,0x4d,0x58,0x20,
0x23,0x34,0x00,0xff,0x04,0x11,0x47,0x4d,0x20,0x4d,0x49,0x44,0x49,0x20,0x44,0x65,
0x76,0x69,0x63,0x65,0x20,0x31,0x30,0x00,0xc9,0x80,0x00,0x99,0x3f,0x6b,0x41,0x89,
0x3f,0x40,0x37,0x99,0x3f,0x4d,0x49,0x89,0x3f,0x40,0x81,0x27,0x99,0x3f,0x66,0x3d,
0x89,0x3f,0x40,0x3b,0x99,0x3f,0x4b,0x46,0x89,0x3f,0x40,0x81,0x2a,0x99,0x3f,0x6b,
0x44,0x89,0x3f,0x40,0x34,0x99,0x3f,0x53,0x46,0x89,0x3f,0x40,0x81,0x2a,0x99,0x3f,
0x6b,0x3f,0x89,0x3f,0x40,0x39,0x99,0x3f,0x57,0x50,0x89,0x3f,0x40,0x81,0x20,0x99,
0x3f,0x66,0x60,0x89,0x3f,0x40,0x18,0x99,0x3e,0x78,0x3a,0x89,0x3e,0x40,0x3e,0x99,
0x3f,0x47,0x5b,0x89,0x3f,0x40,0x81,0x15,0x99,0x3f,0x6b,0x42,0x89,0x3f,0x40,0x36,
0x99,0x3f,0x47,0x4c,0x89,0x3f,0x40,0x81,0x24,0x99,0x3f,0x5c,0x40,0x89,0x3f,0x40,
0x38,0x99,0x3f,0x4d,0x4f,0x89,0x3f,0x40,0x81,0x21,0x99,0x3f,0x66,0x48,0x89,0x3f,
0x40,0x30,0x99,0x3f,0x50,0x4f,0x89,0x3f,0x40,0x81,0x21,0x99,0x3f,0x66,0x3e,0x89,
0x3f,0x40,0x3a,0x99,0x3f,0x50,0x50,0x89,0x3f,0x40,0x81,0x20,0x99,0x3f,0x57,0x68,
0x89,0x3f,0x40,0x10,0x99,0x3e,0x78,0x39,0x89,0x3e,0x40,0x3f,0x99,0x3f,0x4b,0x52,
0x89,0x3f,0x40,0x81,0x1e,0x99,0x3f,0x66,0x4b,0x89,0x3f,0x40,0x2d,0x99,0x3f,0x4b,
0x52,0x89,0x3f,0x40,0x81,0x1e,0x99,0x3f,0x5c,0x3d,0x89,0x3f,0x40,0x3b,0x99,0x3f,
0x48,0x00,0x40,0x47,0x3f,0x89,0x40,0x40,0x12,0x3f,0x40,0x81,0x1f,0x99,0x3f,0x5c,
0x46,0x89,0x3f,0x40,0x32,0x99,0x3f,0x47,0x54,0x89,0x3f,0x40,0x81,0x1c,0x99,0x3f,
0x57,0x42,0x89,0x3f,0x40,0x36,0x99,0x3f,0x49,0x4c,0x89,0x3f,0x40,0x81,0x24,0x99,
0x3f,0x57,0x6c,0x89,0x3f,0x40,0x0c,0x99,0x3e,0x6b,0x45,0x89,0x3e,0x40,0x33,0x99,
0x3f,0x4b,0x5b,0x89,0x3f,0x40,0x81,0x15,0x99,0x3f,0x57,0x41,0x89,0x3f,0x40,0x37,
0x99,0x3f,0x47,0x4e,0x89,0x3f,0x40,0x81,0x22,0x99,0x3f,0x53,0x42,0x89,0x3f,0x40,
0x36,0x99,0x3f,0x48,0x52,0x89,0x3f,0x40,0x81,0x1e,0x99,0x3f,0x53,0x43,0x89,0x3f,
0x40,0x35,0x99,0x3f,0x47,0x5a,0x89,0x3f,0x40,0x81,0x16,0x99,0x3f,0x50,0x46,0x89,
0x3f,0x40,0x32,0x99,0x3f,0x47,0x4f,0x89,0x3f,0x40,0x81,0x21,0x99,0x3f,0x50,0x6b,
0x89,0x3f,0x40,0x0d,0x99,0x3e,0x6b,0x44,0x89,0x3e,0x40,0x34,0x99,0x3f,0x4d,0x53,
0x89,0x3f,0x40,0x81,0x1d,0x99,0x3f,0x5c,0x49,0x89,0x3f,0x40,0x2f,0x99,0x3f,0x53,
0x4a,0x89,0x3f,0x40,0x81,0x26,0x99,0x3f,0x5c,0x4b,0x89,0x3f,0x40,0x2d,0x99,0x3f,
0x45,0x54,0x89,0x3f,0x40,0x81,0x1c,0x99,0x3e,0x61,0x00,0x3f,0x4d,0x08,0x89,0x3e,
0x40,0x3d,0x3f,0x40,0x33,0x99,0x3f,0x53,0x52,0x89,0x3f,0x40,0x81,0x1e,0x99,0x3f,
0x57,0x46,0x89,0x3f,0x40,0x32,0x99,0x3f,0x4b,0x50,0x89,0x3f,0x40,0x81,0x20,0x99,
0x3f,0x5c,0x62,0x89,0x3f,0x40,0x16,0x99,0x3e,0x61,0x42,0x89,0x3e,0x40,0x36,0x99,
0x3f,0x50,0x50,0x89,0x3f,0x40,0x81,0x20,0x99,0x3f,0x57,0x52,0x89,0x3f,0x40,0x26,
0x99,0x3f,0x49,0x56,0x89,0x3f,0x40,0x81,0x1a,0x99,0x3f,0x53,0x4c,0x89,0x3f,0x40,
0x2c,0x99,0x3e,0x7f,0x00,0x3f,0x4d,0x37,0x89,0x3e,0x40,0x18,0x3f,0x40,0x81,0x21,
0x99,0x3f,0x4b,0x40,0x89,0x3f,0x40,0x38,0x99,0x3f,0x48,0x47,0x89,0x3f,0x40,0x81,
0x29,0x99,0x3f,0x53,0x4c,0x89,0x3f,0x40,0x81,0x24,0x99,0x3f,0x46,0x6a,0x89,0x3f,
0x40,0x0e,0x99,0x3f,0x46,0x78,0x3e,0x61,0x06,0x89,0x3f,0x40,0x46,0x3e,0x40,0x2c,
0x99,0x3f,0x50,0x48,0x89,0x3f,0x40,0x81,0x28,0x99,0x3f,0x66,0x46,0x89,0x3f,0x40,
0x32,0x99,0x3f,0x53,0x4b,0x89,0x3f,0x40,0x81,0x25,0x99,0x3f,0x50,0x4b,0x89,0x3f,
0x40,0x2d,0x99,0x3f,0x46,0x57,0x89,0x3f,0x40,0x81,0x19,0x99,0x3f,0x50,0x4b,0x89,
0x3f,0x40,0x2d,0x99,0x3f,0x46,0x67,0x89,0x3f,0x40,0x81,0x09,0x99,0x3f,0x49,0x3f,
0x89,0x3f,0x40,0x39,0x99,0x3f,0x48,0x50,0x89,0x3f,0x40,0x81,0x20,0x99,0x3f,0x53,
0x72,0x89,0x3f,0x40,0x06,0x99,0x3e,0x6b,0x3e,0x89,0x3e,0x40,0x3a,0x99,0x3f,0x48,
0x50,0x89,0x3f,0x40,0x81,0x20,0x99,0x3f,0x66,0x46,0x89,0x3f,0x40,0x32,0x99,0x3f,
0x53,0x4b,0x89,0x3f,0x40,0x81,0x25,0x99,0x3f,0x50,0x4b,0x89,0x3f,0x40,0x2d,0x99,
0x3f,0x46,0x57,0x89,0x3f,0x40,0x81,0x19,0x99,0x3f,0x50,0x4b,0x89,0x3f,0x40,0x2d,
0x99,0x3f,0x46,0x67,0x89,0x3f,0x40,0x81,0x09,0x99,0x3f,0x49,0x3f,0x89,0x3f,0x40,
0x39,0x99,0x3f,0x48,0x50,0x89,0x3f,0x40,0x81,0x20,0x99,0x3f,0x53,0x72,0x89,0x3f,
0x40,0x06,0x99,0x3e,0x6b,0x3e,0x89,0x3e,0x40,0x3a,0x99,0x3f,0x48,0x50,0x89,0x3f,
0x40,0x81,0x20,0x99,0x3f,0x6b,0x41,0x89,0x3f,0x40,0x37,0x99,0x3f,0x4d,0x49,0x89,
0x3f,0x40,0x81,0x27,0x99,0x3f,0x66,0x3d,0x89,0x3f,0x40,0x3b,0x99,0x3f,0x4b,0x46,
0x89,0x3f,0x40,0x81,0x2a,0x99,0x3f,0x6b,0x44,0x89,0x3f,0x40,0x34,0x99,0x3f,0x53,
0x46,0x89,0x3f,0x40,0x81,0x2a,0x99,0x3f,0x6b,0x3f,0x89,0x3f,0x40,0x39,0x99,0x3f,
0x57,0x50,0x89,0x3f,0x40,0x81,0x20,0x99,0x3f,0x66,0x60,0x89,0x3f,0x40,0x18,0x99,
0x3e,0x78,0x3a,0x89,0x3e,0x40,0x3e,0x99,0x3f,0x47,0x5b,0x89,0x3f,0x40,0x81,0x15,
0x99,0x3f,0x6b,0x42,0x89,0x3f,0x40,0x36,0x99,0x3f,0x47,0x4c,0x89,0x3f,0x40,0x81,
0x24,0x99,0x3f,0x5c,0x40,0x89,0x3f,0x40,0x38,0x99,0x3f,0x4d,0x4f,0x89,0x3f,0x40,
0x81,0x21,0x99,0x3f,0x66,0x48,0x89,0x3f,0x40,0x30,0x99,0x3f,0x50,0x4f,0x89,0x3f,
0x40,0x81,0x21,0x99,0x3f,0x66,0x3e,0x89,0x3f,0x40,0x3a,0x99,0x3f,0x50,0x50,0x89,
0x3f,0x40,0x81,0x20,0x99,0x3f,0x57,0x68,0x89,0x3f,0x40,0x10,0x99,0x3e,0x78,0x39,
0x89,0x3e,0x40,0x3f,0x99,0x3f,0x4b,0x52,0x89,0x3f,0x40,0x81,0x1e,0x99,0x3f,0x66,
0x4b,0x89,0x3f,0x40,0x2d,0x99,0x3f,0x4b,0x52,0x89,0x3f,0x40,0x81,0x1e,0x99,0x3f,
0x5c,0x3d,0x89,0x3f,0x40,0x3b,0x99,0x3f,0x48,0x00,0x40,0x47,0x3f,0x89,0x40,0x40,
0x12,0x3f,0x40,0x81,0x1f,0x99,0x3f,0x5c,0x46,0x89,0x3f,0x40,0x32,0x99,0x3f,0x47,
0x54,0x89,0x3f,0x40,0x81,0x1c,0x99,0x3f,0x57,0x42,0x89,0x3f,0x40,0x36,0x99,0x3f,
0x49,0x4c,0x89,0x3f,0x40,0x81,0x24,0x99,0x3f,0x57,0x6c,0x89,0x3f,0x40,0x0c,0x99,
0x3e,0x6b,0x45,0x89,0x3e,0x40,0x33,0x99,0x3f,0x4b,0x5b,0x89,0x3f,0x40,0x81,0x15,
0x99,0x3f,0x57,0x41,0x89,0x3f,0x40,0x37,0x99,0x3f,0x47,0x4e,0x89,0x3f,0x40,0x81,
0x22,0x99,0x3f,0x53,0x42,0x89,0x3f,0x40,0x36,0x99,0x3f,0x48,0x52,0x89,0x3f,0x40,
0x81,0x1e,0x99,0x3f,0x53,0x43,0x89,0x3f,0x40,0x35,0x99,0x3f,0x47,0x5a,0x89,0x3f,
0x40,0x81,0x16,0x99,0x3f,0x50,0x46,0x89,0x3f,0x40,0x32,0x99,0x3f,0x47,0x4f,0x89,
0x3f,0x40,0x81,0x21,0x99,0x3f,0x50,0x6b,0x89,0x3f,0x40,0x0d,0x99,0x3e,0x6b,0x44,
0x89,0x3e,0x40,0x34,0x99,0x3f,0x4d,0x53,0x89,0x3f,0x40,0x81,0x1d,0x99,0x3f,0x5c,
0x49,0x89,0x3f,0x40,0x2f,0x99,0x3f,0x53,0x4a,0x89,0x3f,0x40,0x81,0x26,0x99,0x3f,
0x5c,0x4b,0x89,0x3f,0x40,0x2d,0x99,0x3f,0x45,0x54,0x89,0x3f,0x40,0x81,0x1c,0x99,
0x3e,0x61,0x00,0x3f,0x4d,0x08,0x89,0x3e,0x40,0x3d,0x3f,0x40,0x33,0x99,0x3f,0x53,
0x52,0x89,0x3f,0x40,0x81,0x1e,0x99,0x3f,0x57,0x46,0x89,0x3f,0x40,0x32,0x99,0x3f,
0x4b,0x50,0x89,0x3f,0x40,0x81,0x20,0x99,0x3f,0x5c,0x62,0x89,0x3f,0x40,0x16,0x99,
0x3e,0x61,0x42,0x89,0x3e,0x40,0x36,0x99,0x3f,0x50,0x50,0x89,0x3f,0x40,0x81,0x20,
0x99,0x3f,0x57,0x52,0x89,0x3f,0x40,0x26,0x99,0x3f,0x49,0x56,0x89,0x3f,0x40,0x81,
0x1a,0x99,0x3f,0x53,0x4c,0x89,0x3f,0x40,0x2c,0x99,0x3e,0x7f,0x00,0x3f,0x4d,0x37,
0x89,0x3e,0x40,0x18,0x3f,0x40,0x81,0x21,0x99,0x3f,0x4b,0x40,0x89,0x3f,0x40,0x38,
0x99,0x3f,0x48,0x47,0x89,0x3f,0x40,0x81,0x29,0x99,0x3f,0x53,0x4c,0x89,0x3f,0x40,
0x81,0x24,0x99,0x3f,0x46,0x6a,0x89,0x3f,0x40,0x0e,0x99,0x3f,0x46,0x78,0x3e,0x61,
0x06,0x89,0x3f,0x40,0x46,0x3e,0x40,0x2c,0x99,0x3f,0x50,0x48,0x89,0x3f,0x40,0x81,
0x28,0x99,0x3f,0x66,0x46,0x89,0x3f,0x40,0x32,0x99,0x3f,0x53,0x4b,0x89,0x3f,0x40,
0x81,0x25,0x99,0x3f,0x50,0x4b,0x89,0x3f,0x40,0x2d,0x99,0x3f,0x46,0x57,0x89,0x3f,
0x40,0x81,0x19,0x99,0x3f,0x50,0x4b,0x89,0x3f,0x40,0x2d,0x99,0x3f,0x46,0x67,0x89,
0x3f,0x40,0x81,0x09,0x99,0x3f,0x49,0x3f,0x89,0x3f,0x40,0x39,0x99,0x3f,0x48,0x50,
0x89,0x3f,0x40,0x81,0x20,0x99,0x3f,0x53,0x72,0x89,0x3f,0x40,0x06,0x99,0x3e,0x6b,
0x3e,0x89,0x3e,0x40,0x3a,0x99,0x3f,0x48,0x50,0x89,0x3f,0x40,0x81,0x20,0x99,0x3f,
0x66,0x46,0x89,0x3f,0x40,0x32,0x99,0x3f,0x53,0x4b,0x89,0x3f,0x40,0x81,0x25,0x99,
0x3f,0x50,0x4b,0x89,0x3f,0x40,0x2d,0x99,0x3f,0x46,0x57,0x89,0x3f,0x40,0x81,0x19,
0x99,0x3f,0x50,0x4b,0x89,0x3f,0x40,0x2d,0x99,0x3f,0x46,0x67,0x89,0x3f,0x40,0x81,
0x09,0x99,0x3f,0x49,0x3f,0x89,0x3f,0x40,0x39,0x99,0x3f,0x48,0x50,0x89,0x3f,0x40,
0x81,0x20,0x99,0x3f,0x53,0x72,0x89,0x3f,0x40,0x06,0x99,0x3e,0x6b,0x3e,0x89,0x3e,
0x40,0x3a,0x99,0x3f,0x48,0x50,0x89,0x3f,0x40,0x81,0x20,0x99,0x3f,0x6b,0x41,0x89,
0x3f,0x40,0x37,0x99,0x3f,0x4d,0x49,0x89,0x3f,0x40,0x81,0x27,0x99,0x3f,0x66,0x3d,
0x89,0x3f,0x40,0x3b,0x99,0x3f,0x4b,0x46,0x89,0x3f,0x40,0x81,0x2a,0x99,0x3f,0x6b,
0x44,0x89,0x3f,0x40,0x34,0x99,0x3f,0x53,0x46,0x89,0x3f,0x40,0x81,0x2a,0x99,0x3f,
0x6b,0x3f,0x89,0x3f,0x40,0x39,0x99,0x3f,0x57,0x50,0x89,0x3f,0x40,0x81,0x20,0x99,
0x3f,0x66,0x60,0x89,0x3f,0x40,0x18,0x99,0x3e,0x78,0x3a,0x89,0x3e,0x40,0x3e,0x99,
0x3f,0x47,0x5b,0x89,0x3f,0x40,0x81,0x15,0x99,0x3f,0x6b,0x42,0x89,0x3f,0x40,0x36,
0x99,0x3f,0x47,0x4c,0x89,0x3f,0x40,0x81,0x24,0x99,0x3f,0x5c,0x40,0x89,0x3f,0x40,
0x38,0x99,0x3f,0x4d,0x4f,0x89,0x3f,0x40,0x81,0x21,0x99,0x3f,0x66,0x48,0x89,0x3f,
0x40,0x30,0x99,0x3f,0x50,0x4f,0x89,0x3f,0x40,0x81,0x21,0x99,0x3f,0x66,0x3e,0x89,
0x3f,0x40,0x3a,0x99,0x3f,0x50,0x50,0x89,0x3f,0x40,0x81,0x20,0x99,0x3f,0x57,0x68,
0x89,0x3f,0x40,0x10,0x99,0x3e,0x78,0x39,0x89,0x3e,0x40,0x3f,0x99,0x3f,0x4b,0x52,
0x89,0x3f,0x40,0x81,0x1e,0x99,0x3f,0x66,0x4b,0x89,0x3f,0x40,0x2d,0x99,0x3f,0x4b,
0x52,0x89,0x3f,0x40,0x81,0x1e,0x99,0x3f,0x5c,0x3d,0x89,0x3f,0x40,0x3b,0x99,0x3f,
0x48,0x00,0x40,0x47,0x3f,0x89,0x40,0x40,0x12,0x3f,0x40,0x81,0x1f,0x99,0x3f,0x5c,
0x46,0x89,0x3f,0x40,0x32,0x99,0x3f,0x47,0x54,0x89,0x3f,0x40,0x81,0x1c,0x99,0x3f,
0x57,0x42,0x89,0x3f,0x40,0x36,0x99,0x3f,0x49,0x4c,0x89,0x3f,0x40,0x81,0x24,0x99,
0x3f,0x57,0x6c,0x89,0x3f,0x40,0x0c,0x99,0x3e,0x6b,0x45,0x89,0x3e,0x40,0x33,0x99,
0x3f,0x4b,0x5b,0x89,0x3f,0x40,0x81,0x15,0x99,0x3f,0x57,0x41,0x89,0x3f,0x40,0x37,
0x99,0x3f,0x47,0x4e,0x89,0x3f,0x40,0x81,0x22,0x99,0x3f,0x53,0x42,0x89,0x3f,0x40,
0x36,0x99,0x3f,0x48,0x52,0x89,0x3f,0x40,0x81,0x1e,0x99,0x3f,0x53,0x43,0x89,0x3f,
0x40,0x35,0x99,0x3f,0x47,0x5a,0x89,0x3f,0x40,0x81,0x16,0x99,0x3f,0x50,0x46,0x89,
0x3f,0x40,0x32,0x99,0x3f,0x47,0x4f,0x89,0x3f,0x40,0x81,0x21,0x99,0x3f,0x50,0x6b,
0x89,0x3f,0x40,0x0d,0x99,0x3e,0x6b,0x44,0x89,0x3e,0x40,0x34,0x99,0x3f,0x4d,0x53,
0x89,0x3f,0x40,0x81,0x1d,0x99,0x3f,0x5c,0x49,0x89,0x3f,0x40,0x2f,0x99,0x3f,0x53,
0x4a,0x89,0x3f,0x40,0x81,0x26,0x99,0x3f,0x5c,0x4b,0x89,0x3f,0x40,0x2d,0x99,0x3f,
0x45,0x54,0x89,0x3f,0x40,0x81,0x1c,0x99,0x3e,0x61,0x00,0x3f,0x4d,0x08,0x89,0x3e,
0x40,0x3d,0x3f,0x40,0x33,0x99,0x3f,0x53,0x52,0x89,0x3f,0x40,0x81,0x1e,0x99,0x3f,
0x57,0x46,0x89,0x3f,0x40,0x32,0x99,0x3f,0x4b,0x50,0x89,0x3f,0x40,0x81,0x20,0x99,
0x3f,0x5c,0x62,0x89,0x3f,0x40,0x16,0x99,0x3e,0x61,0x42,0x89,0x3e,0x40,0x36,0x99,
0x3f,0x50,0x50,0x89,0x3f,0x40,0x81,0x20,0x99,0x3f,0x57,0x52,0x89,0x3f,0x40,0x26,
0x99,0x3f,0x49,0x56,0x89,0x3f,0x40,0x81,0x1a,0x99,0x3f,0x53,0x4c,0x89,0x3f,0x40,
0x2c,0x99,0x3e,0x7f,0x00,0x3f,0x4d,0x37,0x89,0x3e,0x40,0x18,0x3f,0x40,0x81,0x21,
0x99,0x3f,0x4b,0x40,0x89,0x3f,0x40,0x38,0x99,0x3f,0x48,0x47,0x89,0x3f,0x40,0x81,
0x29,0x99,0x3f,0x53,0x4c,0x89,0x3f,0x40,0x81,0x24,0x99,0x3f,0x46,0x6a,0x89,0x3f,
0x40,0x0e,0x99,0x3f,0x46,0x78,0x3e,0x61,0x06,0x89,0x3f,0x40,0x46,0x3e,0x40,0x2c,
0x99,0x3f,0x50,0x48,0x89,0x3f,0x40,0x81,0x28,0x99,0x3f,0x66,0x46,0x89,0x3f,0x40,
0x32,0x99,0x3f,0x53,0x4b,0x89,0x3f,0x40,0x81,0x25,0x99,0x3f,0x50,0x4b,0x89,0x3f,
0x40,0x2d,0x99,0x3f,0x46,0x57,0x89,0x3f,0x40,0x81,0x19,0x99,0x3f,0x50,0x4b,0x89,
0x3f,0x40,0x2d,0x99,0x3f,0x46,0x67,0x89,0x3f,0x40,0x81,0x09,0x99,0x3f,0x49,0x3f,
0x89,0x3f,0x40,0x39,0x99,0x3f,0x48,0x50,0x89,0x3f,0x40,0x81,0x20,0x99,0x3f,0x53,
0x72,0x89,0x3f,0x40,0x06,0x99,0x3e,0x6b,0x3e,0x89,0x3e,0x40,0x3a,0x99,0x3f,0x48,
0x50,0x89,0x3f,0x40,0x81,0x20,0x99,0x3f,0x66,0x46,0x89,0x3f,0x40,0x32,0x99,0x3f,
0x53,0x4b,0x89,0x3f,0x40,0x81,0x25,0x99,0x3f,0x50,0x4b,0x89,0x3f,0x40,0x2d,0x99,
0x3f,0x46,0x57,0x89,0x3f,0x40,0x81,0x19,0x99,0x3f,0x50,0x4b,0x89,0x3f,0x40,0x2d,
0x99,0x3f,0x46,0x67,0x89,0x3f,0x40,0x81,0x09,0x99,0x3f,0x49,0x3f,0x89,0x3f,0x40,
0x39,0x99,0x3f,0x48,0x50,0x89,0x3f,0x40,0x81,0x20,0x99,0x3f,0x53,0x72,0x89,0x3f,
0x40,0x06,0x99,0x3e,0x6b,0x3e,0x89,0x3e,0x40,0x3a,0x99,0x3f,0x48,0x50,0x89,0x3f,
0x40,0x81,0x20,0x99,0x3f,0x6b,0x41,0x89,0x3f,0x40,0x37,0x99,0x3f,0x4d,0x49,0x89,
0x3f,0x40,0x81,0x27,0x99,0x3f,0x66,0x3d,0x89,0x3f,0x40,0x3b,0x99,0x3f,0x4b,0x46,
0x89,0x3f,0x40,0x81,0x2a,0x99,0x3f,0x6b,0x44,0x89,0x3f,0x40,0x34,0x99,0x3f,0x53,
0x46,0x89,0x3f,0x40,0x81,0x2a,0x99,0x3f,0x6b,0x3f,0x89,0x3f,0x40,0x39,0x99,0x3f,
0x57,0x50,0x89,0x3f,0x40,0x81,0x20,0x99,0x3f,0x66,0x60,0x89,0x3f,0x40,0x18,0x99,
0x3e,0x78,0x3a,0x89,0x3e,0x40,0x3e,0x99,0x3f,0x47,0x5b,0x89,0x3f,0x40,0x81,0x15,
0x99,0x3f,0x6b,0x42,0x89,0x3f,0x40,0x36,0x99,0x3f,0x47,0x4c,0x89,0x3f,0x40,0x81,
0x24,0x99,0x3f,0x5c,0x40,0x89,0x3f,0x40,0x38,0x99,0x3f,0x4d,0x4f,0x89,0x3f,0x40,
0x81,0x21,0x99,0x3f,0x66,0x48,0x89,0x3f,0x40,0x30,0x99,0x3f,0x50,0x4f,0x89,0x3f,
0x40,0x81,0x21,0x99,0x3f,0x66,0x3e,0x89,0x3f,0x40,0x3a,0x99,0x3f,0x50,0x50,0x89,
0x3f,0x40,0x81,0x20,0x99,0x3f,0x57,0x68,0x89,0x3f,0x40,0x10,0x99,0x3e,0x78,0x39,
0x89,0x3e,0x40,0x3f,0x99,0x3f,0x4b,0x52,0x89,0x3f,0x40,0x81,0x1e,0x99,0x3f,0x66,
0x4b,0x89,0x3f,0x40,0x2d,0x99,0x3f,0x4b,0x52,0x89,0x3f,0x40,0x81,0x1e,0x99,0x3f,
0x5c,0x3d,0x89,0x3f,0x40,0x3b,0x99,0x3f,0x48,0x00,0x40,0x47,0x3f,0x89,0x40,0x40,
0x12,0x3f,0x40,0x81,0x1f,0x99,0x3f,0x5c,0x46,0x89,0x3f,0x40,0x32,0x99,0x3f,0x47,
0x54,0x89,0x3f,0x40,0x81,0x1c,0x99,0x3f,0x57,0x42,0x89,0x3f,0x40,0x36,0x99,0x3f,
0x49,0x4c,0x89,0x3f,0x40,0x81,0x24,0x99,0x3f,0x57,0x6c,0x89,0x3f,0x40,0x0c,0x99,
0x3e,0x6b,0x45,0x89,0x3e,0x40,0x33,0x99,0x3f,0x4b,0x5b,0x89,0x3f,0x40,0x81,0x15,
0x99,0x3f,0x57,0x41,0x89,0x3f,0x40,0x37,0x99,0x3f,0x47,0x4e,0x89,0x3f,0x40,0x81,
0x22,0x99,0x3f,0x53,0x42,0x89,0x3f,0x40,0x36,0x99,0x3f,0x48,0x52,0x89,0x3f,0x40,
0x81,0x1e,0x99,0x3f,0x53,0x43,0x89,0x3f,0x40,0x35,0x99,0x3f,0x47,0x5a,0x89,0x3f,
0x40,0x81,0x16,0x99,0x3f,0x50,0x46,0x89,0x3f,0x40,0x32,0x99,0x3f,0x47,0x4f,0x89,
0x3f,0x40,0x81,0x21,0x99,0x3f,0x50,0x6b,0x89,0x3f,0x40,0x0d,0x99,0x3e,0x6b,0x44,
0x89,0x3e,0x40,0x34,0x99,0x3f,0x4d,0x53,0x89,0x3f,0x40,0x81,0x1d,0x99,0x3f,0x5c,
0x49,0x89,0x3f,0x40,0x2f,0x99,0x3f,0x53,0x4a,0x89,0x3f,0x40,0x81,0x26,0x99,0x3f,
0x5c,0x4b,0x89,0x3f,0x40,0x2d,0x99,0x3f,0x45,0x54,0x89,0x3f,0x40,0x81,0x1c,0x99,
0x3e,0x61,0x00,0x3f,0x4d,0x08,0x89,0x3e,0x40,0x3d,0x3f,0x40,0x33,0x99,0x3f,0x53,
0x52,0x89,0x3f,0x40,0x81,0x1e,0x99,0x3f,0x57,0x46,0x89,0x3f,0x40,0x32,0x99,0x3f,
0x4b,0x50,0x89,0x3f,0x40,0x81,0x20,0x99,0x3f,0x5c,0x62,0x89,0x3f,0x40,0x16,0x99,
0x3e,0x61,0x42,0x89,0x3e,0x40,0x36,0x99,0x3f,0x50,0x50,0x89,0x3f,0x40,0x81,0x20,
0x99,0x3f,0x57,0x52,0x89,0x3f,0x40,0x26,0x99,0x3f,0x49,0x56,0x89,0x3f,0x40,0x81,
0x1a,0x99,0x3f,0x53,0x4c,0x89,0x3f,0x40,0x2c,0x99,0x3e,0x7f,0x00,0x3f,0x4d,0x37,
0x89,0x3e,0x40,0x18,0x3f,0x40,0x81,0x21,0x99,0x3f,0x4b,0x40,0x89,0x3f,0x40,0x38,
0x99,0x3f,0x48,0x47,0x89,0x3f,0x40,0x81,0x29,0x99,0x3f,0x53,0x4c,0x89,0x3f,0x40,
0x81,0x24,0x99,0x3f,0x46,0x6a,0x89,0x3f,0x40,0x0e,0x99,0x3f,0x46,0x78,0x3e,0x61,
0x06,0x89,0x3f,0x40,0x46,0x3e,0x40,0x2c,0x99,0x3f,0x50,0x48,0x89,0x3f,0x40,0x81,
0x28,0x99,0x3f,0x66,0x46,0x89,0x3f,0x40,0x32,0x99,0x3f,0x53,0x4b,0x89,0x3f,0x40,
0x81,0x25,0x99,0x3f,0x50,0x4b,0x89,0x3f,0x40,0x2d,0x99,0x3f,0x46,0x57,0x89,0x3f,
0x40,0x81,0x19,0x99,0x3f,0x50,0x4b,0x89,0x3f,0x40,0x2d,0x99,0x3f,0x46,0x67,0x89,
0x3f,0x40,0x81,0x09,0x99,0x3f,0x49,0x3f,0x89,0x3f,0x40,0x39,0x99,0x3f,0x48,0x50,
0x89,0x3f,0x40,0x81,0x20,0x99,0x3f,0x53,0x72,0x89,0x3f,0x40,0x06,0x99,0x3e,0x6b,
0x3e,0x89,0x3e,0x40,0x3a,0x99,0x3f,0x48,0x50,0x89,0x3f,0x40,0x81,0x20,0x99,0x3f,
0x66,0x46,0x89,0x3f,0x40,0x32,0x99,0x3f,0x53,0x4b,0x89,0x3f,0x40,0x81,0x25,0x99,
0x3f,0x50,0x4b,0x89,0x3f,0x40,0x2d,0x99,0x3f,0x46,0x57,0x89,0x3f,0x40,0x81,0x19,
0x99,0x3f,0x50,0x4b,0x89,0x3f,0x40,0x2d,0x99,0x3f,0x46,0x67,0x89,0x3f,0x40,0x81,
0x09,0x99,0x3f,0x49,0x3f,0x89,0x3f,0x40,0x39,0x99,0x3f,0x48,0x50,0x89,0x3f,0x40,
0x81,0x20,0x99,0x3f,0x53,0x72,0x89,0x3f,0x40,0x06,0x99,0x3e,0x6b,0x3e,0x89,0x3e,
0x40,0x3a,0x99,0x3f,0x48,0x50,0x89,0x3f,0x40,0x00,0xff,0x2f,0x00,0x4d,0x54,0x72,
0x6b,0x00,0x00,0x04,0x92,0x00,0xff,0x20,0x01,0x09,0x00,0xff,0x03,0x0d,0x53,0x74,
0x79,0x6c,0x75,0x73,0x20,0x52,0x4d,0x58,0x20,0x23,0x36,0x00,0xff,0x04,0x11,0x47,
0x4d,0x20,0x4d,0x49,0x44,0x49,0x20,0x44,0x65,0x76,0x69,0x63,0x65,0x20,0x31,0x30,
0x00,0xc9,0x80,0x81,0x70,0x99,0x55,0x5c,0x50,0x89,0x55,0x40,0x81,0x20,0x99,0x55,
0x6b,0x49,0x89,0x55,0x40,0x81,0x27,0x99,0x55,0x6b,0x37,0x89,0x55,0x40,0x41,0x99,
0x55,0x66,0x3e,0x89,0x55,0x40,0x89,0x6a,0x99,0x55,0x6b,0x44,0x89,0x55,0x40,0x81,
0x2c,0x99,0x55,0x78,0x3f,0x89,0x55,0x40,0x81,0x31,0x99,0x55,0x6b,0x30,0x89,0x55,
0x40,0x48,0x99,0x55,0x78,0x3e,0x89,0x55,0x40,0x89,0x6a,0x99,0x55,0x78,0x2d,0x89,
0x55,0x40,0x81,0x43,0x99,0x55,0x78,0x2e,0x89,0x55,0x40,0x81,0x42,0x99,0x55,0x78,
0x27,0x89,0x55,0x40,0x51,0x99,0x55,0x6b,0x2f,0x89,0x55,0x40,0x89,0x79,0x99,0x55,
0x78,0x41,0x89,0x55,0x40,0x81,0x2f,0x99,0x55,0x6b,0x3e,0x89,0x55,0x40,0x81,0x32,
0x99,0x55,0x78,0x2c,0x89,0x55,0x40,0x4c,0x99,0x55,0x6b,0x37,0x89,0x55,0x40,0x89,
0x71,0x99,0x55,0x5c,0x50,0x89,0x55,0x40,0x81,0x20,0x99,0x55,0x6b,0x49,0x89,0x55,
0x40,0x81,0x27,0x99,0x55,0x6b,0x37,0x89,0x55,0x40,0x41,0x99,0x55,0x66,0x3e,0x89,
0x55,0x40,0x89,0x6a,0x99,0x55,0x6b,0x44,0x89,0x55,0x40,0x81,0x2c,0x99,0x55,0x78,
0x3f,0x89,0x55,0x40,0x81,0x31,0x99,0x55,0x6b,0x30,0x89,0x55,0x40,0x48,0x99,0x55,
0x78,0x3e,0x89,0x55,0x40,0x89,0x6a,0x99,0x55,0x78,0x2d,0x89,0x55,0x40,0x81,0x43,
0x99,0x55,0x78,0x2e,0x89,0x55,0x40,0x81,0x42,0x99,0x55,0x78,0x27,0x89,0x55,0x40,
0x51,0x99,0x55,0x6b,0x2f,0x89,0x55,0x40,0x89,0x79,0x99,0x55,0x78,0x41,0x89,0x55,
0x40,0x81,0x2f,0x99,0x55,0x6b,0x3e,0x89,0x55,0x40,0x81,0x32,0x99,0x55,0x78,0x2c,
0x89,0x55,0x40,0x4c,0x99,0x55,0x6b,0x37,0x89,0x55,0x40,0x89,0x71,0x99,0x55,0x5c,
0x50,0x89,0x55,0x40,0x81,0x20,0x99,0x55,0x6b,0x49,0x89,0x55,0x40,0x81,0x27,0x99,
0x55,0x6b,0x37,0x89,0x55,0x40,0x41,0x99,0x55,0x66,0x3e,0x89,0x55,0x40,0x89,0x6a,
0x99,0x55,0x6b,0x44,0x89,0x55,0x40,0x81,0x2c,0x99,0x55,0x78,0x3f,0x89,0x55,0x40,
0x81,0x31,0x99,0x55,0x6b,0x30,0x89,0x55,0x40,0x48,0x99,0x55,0x78,0x3e,0x89,0x55,
0x40,0x89,0x6a,0x99,0x55,0x78,0x2d,0x89,0x55,0x40,0x81,0x43,0x99,0x55,0x78,0x2e,
0x89,0x55,0x40,0x81,0x42,0x99,0x55,0x78,0x27,0x89,0x55,0x40,0x51,0x99,0x55,0x6b,
0x2f,0x89,0x55,0x40,0x89,0x79,0x99,0x55,0x78,0x41,0x89,0x55,0x40,0x81,0x2f,0x99,
0x55,0x6b,0x3e,0x89,0x55,0x40,0x81,0x32,0x99,0x55,0x78,0x2c,0x89,0x55,0x40,0x4c,
0x99,0x55,0x6b,0x37,0x89,0x55,0x40,0x89,0x71,0x99,0x55,0x5c,0x50,0x89,0x55,0x40,
0x81,0x20,0x99,0x55,0x6b,0x49,0x89,0x55,0x40,0x81,0x27,0x99,0x55,0x6b,0x37,0x89,
0x55,0x40,0x41,0x99,0x55,0x66,0x3e,0x89,0x55,0x40,0x89,0x6a,0x99,0x55,0x6b,0x44,
0x89,0x55,0x40,0x81,0x2c,0x99,0x55,0x78,0x3f,0x89,0x55,0x40,0x81,0x31,0x99,0x55,
0x6b,0x30,0x89,0x55,0x40,0x48,0x99,0x55,0x78,0x3e,0x89,0x55,0x40,0x89,0x6a,0x99,
0x55,0x78,0x2d,0x89,0x55,0x40,0x81,0x43,0x99,0x55,0x78,0x2e,0x89,0x55,0x40,0x81,
0x42,0x99,0x55,0x78,0x27,0x89,0x55,0x40,0x51,0x99,0x55,0x6b,0x2f,0x89,0x55,0x40,
0x89,0x79,0x99,0x55,0x78,0x41,0x89,0x55,0x40,0x81,0x2f,0x99,0x55,0x6b,0x3e,0x89,
0x55,0x40,0x81,0x32,0x99,0x55,0x78,0x2c,0x89,0x55,0x40,0x4c,0x99,0x55,0x6b,0x37,
0x89,0x55,0x40,0x89,0x71,0x99,0x55,0x5c,0x50,0x89,0x55,0x40,0x81,0x20,0x99,0x55,
0x6b,0x49,0x89,0x55,0x40,0x81,0x27,0x99,0x55,0x6b,0x37,0x89,0x55,0x40,0x41,0x99,
0x55,0x66,0x3e,0x89,0x55,0x40,0x89,0x6a,0x99,0x55,0x6b,0x44,0x89,0x55,0x40,0x81,
0x2c,0x99,0x55,0x78,0x3f,0x89,0x55,0x40,0x81,0x31,0x99,0x55,0x6b,0x30,0x89,0x55,
0x40,0x48,0x99,0x55,0x78,0x3e,0x89,0x55,0x40,0x89,0x6a,0x99,0x55,0x78,0x2d,0x89,
0x55,0x40,0x81,0x43,0x99,0x55,0x78,0x2e,0x89,0x55,0x40,0x81,0x42,0x99,0x55,0x78,
0x27,0x89,0x55,0x40,0x51,0x99,0x55,0x6b,0x2f,0x89,0x55,0x40,0x89,0x79,0x99,0x55,
0x78,0x41,0x89,0x55,0x40,0x81,0x2f,0x99,0x55,0x6b,0x3e,0x89,0x55,0x40,0x81,0x32,
0x99,0x55,0x78,0x2c,0x89,0x55,0x40,0x4c,0x99,0x55,0x6b,0x37,0x89,0x55,0x40,0x89,
0x71,0x99,0x55,0x5c,0x50,0x89,0x55,0x40,0x81,0x20,0x99,0x55,0x6b,0x49,0x89,0x55,
0x40,0x81,0x27,0x99,0x55,0x6b,0x37,0x89,0x55,0x40,0x41,0x99,0x55,0x66,0x3e,0x89,
0x55,0x40,0x89,0x6a,0x99,0x55,0x6b,0x44,0x89,0x55,0x40,0x81,0x2c,0x99,0x55,0x78,
0x3f,0x89,0x55,0x40,0x81,0x31,0x99,0x55,0x6b,0x30,0x89,0x55,0x40,0x48,0x99,0x55,
0x78,0x3e,0x89,0x55,0x40,0x89,0x6a,0x99,0x55,0x78,0x2d,0x89,0x55,0x40,0x81,0x43,
0x99,0x55,0x78,0x2e,0x89,0x55,0x40,0x81,0x42,0x99,0x55,0x78,0x27,0x89,0x55,0x40,
0x51,0x99,0x55,0x6b,0x2f,0x89,0x55,0x40,0x89,0x79,0x99,0x55,0x78,0x41,0x89,0x55,
0x40,0x81,0x2f,0x99,0x55,0x6b,0x3e,0x89,0x55,0x40,0x81,0x32,0x99,0x55,0x78,0x2c,
0x89,0x55,0x40,0x4c,0x99,0x55,0x6b,0x37,0x89,0x55,0x40,0x89,0x71,0x99,0x55,0x5c,
0x50,0x89,0x55,0x40,0x81,0x20,0x99,0x55,0x6b,0x49,0x89,0x55,0x40,0x81,0x27,0x99,
0x55,0x6b,0x37,0x89,0x55,0x40,0x41,0x99,0x55,0x66,0x3e,0x89,0x55,0x40,0x89,0x6a,
0x99,0x55,0x6b,0x44,0x89,0x55,0x40,0x81,0x2c,0x99,0x55,0x78,0x3f,0x89,0x55,0x40,
0x81,0x31,0x99,0x55,0x6b,0x30,0x89,0x55,0x40,0x48,0x99,0x55,0x78,0x3e,0x89,0x55,
0x40,0x89,0x6a,0x99,0x55,0x78,0x2d,0x89,0x55,0x40,0x81,0x43,0x99,0x55,0x78,0x2e,
0x89,0x55,0x40,0x81,0x42,0x99,0x55,0x78,0x27,0x89,0x55,0x40,0x51,0x99,0x55,0x6b,
0x2f,0x89,0x55,0x40,0x89,0x79,0x99,0x55,0x78,0x41,0x89,0x55,0x40,0x81,0x2f,0x99,
0x55,0x6b,0x3e,0x89,0x55,0x40,0x81,0x32,0x99,0x55,0x78,0x2c,0x89,0x55,0x40,0x4c,
0x99,0x55,0x6b,0x37,0x89,0x55,0x40,0x89,0x71,0x99,0x55,0x5c,0x50,0x89,0x55,0x40,
0x81,0x20,0x99,0x55,0x6b,0x49,0x89,0x55,0x40,0x81,0x27,0x99,0x55,0x6b,0x37,0x89,
0x55,0x40,0x41,0x99,0x55,0x66,0x3e,0x89,0x55,0x40,0x89,0x6a,0x99,0x55,0x6b,0x44,
0x89,0x55,0x40,0x81,0x2c,0x99,0x55,0x78,0x3f,0x89,0x55,0x40,0x81,0x31,0x99,0x55,
0x6b,0x30,0x89,0x55,0x40,0x48,0x99,0x55,0x78,0x3e,0x89,0x55,0x40,0x89,0x6a,0x99,
0x55,0x78,0x2d,0x89,0x55,0x40,0x81,0x43,0x99,0x55,0x78,0x2e,0x89,0x55,0x40,0x81,
0x42,0x99,0x55,0x78,0x27,0x89,0x55,0x40,0x51,0x99,0x55,0x6b,0x2f,0x89,0x55,0x40,
0x89,0x79,0x99,0x55,0x78,0x41,0x89,0x55,0x40,0x81,0x2f,0x99,0x55,0x6b,0x3e,0x89,
0x55,0x40,0x81,0x32,0x99,0x55,0x78,0x2c,0x89,0x55,0x40,0x4c,0x99,0x55,0x6b,0x37,
0x89,0x55,0x40,0x00,0xff,0x2f,0x00,
};
