/* XPM */
static char * lc_meter_icons_h_xpm[] = {
"32 224 2 1",
" 	c #FFFFFFFFFFFF",
".	c #000000000000",
"                                ",
".                               ",
".                               ",
".                               ",
".                               ",
".                               ",
".                               ",
"                                ",
"                                ",
"..                              ",
"..                              ",
"..                              ",
"..                              ",
"..                              ",
"..                              ",
"                                ",
"                                ",
".. .                            ",
".. .                            ",
".. .                            ",
".. .                            ",
".. .                            ",
".. .                            ",
"                                ",
"                                ",
".. . .                          ",
".. . .                          ",
".. . .                          ",
".. . .                          ",
".. . .                          ",
".. . .                          ",
"                                ",
"                                ",
".. . . .                        ",
".. . . .                        ",
".. . . .                        ",
".. . . .                        ",
".. . . .                        ",
".. . . .                        ",
"                                ",
"                                ",
".. . . . .                      ",
".. . . . .                      ",
".. . . . .                      ",
".. . . . .                      ",
".. . . . .                      ",
".. . . . .                      ",
"                                ",
"                                ",
".. . . . . .                    ",
".. . . . . .                    ",
".. . . . . .                    ",
".. . . . . .                    ",
".. . . . . .                    ",
".. . . . . .                    ",
"                                ",
"                                ",
".. . . . . . .                  ",
".. . . . . . .                  ",
".. . . . . . .                  ",
".. . . . . . .                  ",
".. . . . . . .                  ",
".. . . . . . .                  ",
"                                ",
"                                ",
".. . . . . . . .                ",
".. . . . . . . .                ",
".. . . . . . . .                ",
".. . . . . . . .                ",
".. . . . . . . .                ",
".. . . . . . . .                ",
"                                ",
"                                ",
".. . . . . . . . .              ",
".. . . . . . . . .              ",
".. . . . . . . . .              ",
".. . . . . . . . .              ",
".. . . . . . . . .              ",
".. . . . . . . . .              ",
"                                ",
"                                ",
".. . . . . . . . . .            ",
".. . . . . . . . . .            ",
".. . . . . . . . . .            ",
".. . . . . . . . . .            ",
".. . . . . . . . . .            ",
".. . . . . . . . . .            ",
"                                ",
"                                ",
".. . . . . . . . . . .          ",
".. . . . . . . . . . .          ",
".. . . . . . . . . . .          ",
".. . . . . . . . . . .          ",
".. . . . . . . . . . .          ",
".. . . . . . . . . . .          ",
"                                ",
"                                ",
".. . . . . . . . . . . .        ",
".. . . . . . . . . . . .        ",
".. . . . . . . . . . . .        ",
".. . . . . . . . . . . .        ",
".. . . . . . . . . . . .        ",
".. . . . . . . . . . . .        ",
"                                ",
"                                ",
".. . . . . . . . . . . . .      ",
".. . . . . . . . . . . . .      ",
".. . . . . . . . . . . . .      ",
".. . . . . . . . . . . . .      ",
".. . . . . . . . . . . . .      ",
".. . . . . . . . . . . . .      ",
"                                ",
"                                ",
".                               ",
".                               ",
".                          .    ",
".                          .    ",
".                               ",
".                               ",
"                                ",
"                                ",
"..                              ",
"..                              ",
"..                         .    ",
"..                         .    ",
"..                              ",
"..                              ",
"                                ",
"                                ",
".. .                            ",
".. .                            ",
".. .                       .    ",
".. .                       .    ",
".. .                            ",
".. .                            ",
"                                ",
"                                ",
".. . .                          ",
".. . .                          ",
".. . .                     .    ",
".. . .                     .    ",
".. . .                          ",
".. . .                          ",
"                                ",
"                                ",
".. . . .                        ",
".. . . .                        ",
".. . . .                   .    ",
".. . . .                   .    ",
".. . . .                        ",
".. . . .                        ",
"                                ",
"                                ",
".. . . . .                      ",
".. . . . .                      ",
".. . . . .                 .    ",
".. . . . .                 .    ",
".. . . . .                      ",
".. . . . .                      ",
"                                ",
"                                ",
".. . . . . .                    ",
".. . . . . .                    ",
".. . . . . .               .    ",
".. . . . . .               .    ",
".. . . . . .                    ",
".. . . . . .                    ",
"                                ",
"                                ",
".. . . . . . .                  ",
".. . . . . . .                  ",
".. . . . . . .             .    ",
".. . . . . . .             .    ",
".. . . . . . .                  ",
".. . . . . . .                  ",
"                                ",
"                                ",
".. . . . . . . .                ",
".. . . . . . . .                ",
".. . . . . . . .           .    ",
".. . . . . . . .           .    ",
".. . . . . . . .                ",
".. . . . . . . .                ",
"                                ",
"                                ",
".. . . . . . . . .              ",
".. . . . . . . . .              ",
".. . . . . . . . .         .    ",
".. . . . . . . . .         .    ",
".. . . . . . . . .              ",
".. . . . . . . . .              ",
"                                ",
"                                ",
".. . . . . . . . . .            ",
".. . . . . . . . . .            ",
".. . . . . . . . . .       .    ",
".. . . . . . . . . .       .    ",
".. . . . . . . . . .            ",
".. . . . . . . . . .            ",
"                                ",
"                                ",
".. . . . . . . . . . .          ",
".. . . . . . . . . . .          ",
".. . . . . . . . . . .     .    ",
".. . . . . . . . . . .     .    ",
".. . . . . . . . . . .          ",
".. . . . . . . . . . .          ",
"                                ",
"                                ",
".. . . . . . . . . . . .        ",
".. . . . . . . . . . . .        ",
".. . . . . . . . . . . .   .    ",
".. . . . . . . . . . . .   .    ",
".. . . . . . . . . . . .        ",
".. . . . . . . . . . . .        ",
"                                ",
"                                ",
".. . . . . . . . . . . . .      ",
".. . . . . . . . . . . . .      ",
".. . . . . . . . . . . . . .    ",
".. . . . . . . . . . . . . .    ",
".. . . . . . . . . . . . .      ",
".. . . . . . . . . . . . .      ",
"                                "};
