/* XPM */
static char * knobs_xpm[] = {
"384 24 2 1",
" 	c #FFFFFFFFFFFF",
".	c #000000000000",
"                                                                                                                                                                                                                                                                                                                                                                                                ",
"                                                                                                                                                                                                                                                                                                                                                                                                ",
"                                                                                                                                                                                                                                                                                                                                                                                                ",
"             .....                           .....                           .....                           .....                           .....                           .....                           .....                           .....                           .....                           .....                           .....                           .....              ",
"           ..     ..                       ..     ..                       ..     ..                       ..     ..                       ..     ..                       ..     ..                       ..  .  ..                       ..     ..                       ..     ..                       ..     ..                       ..     ..                       ..     ..            ",
"          .         .                     .         .                     .         .                     .         .                     .         .                     . .       .                     .    .    .                     .       . .                     .         .                     .         .                     .         .                     .         .           ",
"          .         .                     .         .                     .         .                     .         .                     .         .                     .  .      .                     .    .    .                     .      .  .                     .         .                     .         .                     .         .                     .         .           ",
"         .           .                   .           .                   .           .                   .           .                   ..          .                   .   .       .                   .     .     .                   .       .   .                   .          ..                   .           .                   .           .                   .           .          ",
"         .           .                   .           .                   .           .                   .           .                   . .         .                   .    .      .                   .     .     .                   .      .    .                   .         . .                   .           .                   .           .                   .           .          ",
"        .             .                 .             .                 .             .                 .             .                 .   ..        .                 .     .       .                 .      .      .                 .       .     .                 .        ..   .                 .             .                 .             .                 .             .         ",
"        .             ..                .             ..                .             ..                ....          ..                .     .       ..                .      .      ..                .      .      ..                .      .      ..                .       .     ..                .         ......                .             ..                .             ..        ",
"        .             ..                .      .      ..                .     ..      ..                .   ....      ..                .      .      ..                .      .      ..                .      .      ..                .      .      ..                .      .      ..                .      ...    ..                .      ..     ..                .      .      ..        ",
"        .             ..                .     .       ..                .  ...        ..                .             ..                .             ..                .             ..                .             ..                .             ..                .             ..                .             ..                .        ..   ..                .       .     ..        ",
"        .             ..                .    .        ..                ...           ..                .             ..                .             ..                .             ..                .             ..                .             ..                .             ..                .             ..                .          .. ..                .        .    ..        ",
"         .           ...                 .   .       ...                 .           ...                 .           ...                 .           ...                 .           ...                 .           ...                 .           ...                 .           ...                 .           ...                 .           ...                 .       .   ...        ",
"         .           ..                  .  .        ..                  .           ..                  .           ..                  .           ..                  .           ..                  .           ..                  .           ..                  .           ..                  .           ..                  .           ..                  .        .  ..         ",
"          .         ...                   ..        ...                   .         ...                   .         ...                   .         ...                   .         ...                   .         ...                   .         ...                   .         ...                   .         ...                   .         ...                   .        ....         ",
"          .         ..                    .         ..                    .         ..                    .         ..                    .         ..                    .         ..                    .         ..                    .         ..                    .         ..                    .         ..                    .         ..                    .         ..          ",
"           ..     ....                     ..     ....                     ..     ....                     ..     ....                     ..     ....                     ..     ....                     ..     ....                     ..     ....                     ..     ....                     ..     ....                     ..     ....                     ..     ....          ",
"             ........                        ........                        ........                        ........                        ........                        ........                        ........                        ........                        ........                        ........                        ........                        ........           ",
"              .....                           .....                           .....                           .....                           .....                           .....                           .....                           .....                           .....                           .....                           .....                           .....             ",
"                                                                                                                                                                                                                                                                                                                                                                                                ",
"                                                                                                                                                                                                                                                                                                                                                                                                ",
"                                                                                                                                                                                                                                                                                                                                                                                                "};
