/* XPM */
static char * mios_glcd_font_xpm[] = {
"96 64 2 1",
" 	c #FFFFFFFFFFFF",
".	c #000000000000",
"                                           .....    .  .                                        ",
"                                     ..... .....   ..  ..                                       ",
"                               ..... ..... .....  ...  ...                                      ",
"                         ..... ..... ..... ..... ....  ....                                     ",
"                   ..... ..... ..... ..... ..... ....  ....                                     ",
"             ..... ..... ..... ..... ..... .....  ...  ...                                      ",
"       ..... ..... ..... ..... ..... ..... .....   ..  ..                                       ",
" ..... ..... ..... ..... ..... ..... ..... .....    .  .                                        ",
"                                                                                                ",
"                                                                                                ",
"                                                                                                ",
"                                                                                                ",
"                                                                                                ",
"                                                                                                ",
"                                                                                                ",
"                                                                                                ",
"         .    . .   . .    .   ..     ..    ..      .   .                                       ",
"         .    . .   . .   .... ..  . .  .    .     .     .     .     .                         .",
"         .    . .  ..... . .      .  . .    .     .       .  . . .   .                        . ",
"         .          . .   ...    .    .           .       .   ...  .....       .....         .  ",
"                   .....   . .  .    . . .        .       .  . . .   .     ..         ..    .   ",
"                    . .  ....  .  .. .  .          .     .     .     .      .         ..   .    ",
"         .          . .    .      ..  .. .          .   .                  .                    ",
"                                                                                                ",
"  ...    .    ...  .....    .  .....   ..  .....  ...   ...                 .         .     ... ",
" .   .  ..   .   .    .    ..  .      .        . .   . .   .   ..    ..    .           .   .   .",
" .  ..   .       .   .    . .  ....  .        .  .   . .   .   ..    ..   .    .....    .      .",
" . . .   .      .     .  .  .      . ....    .    ...   ....             .               .    . ",
" ..  .   .     .       . .....     . .   .  .    .   .     .   ..    ..   .    .....    .    .  ",
" .   .   .    .    .   .    .  .   . .   .  .    .   .    .    ..     .    .           .        ",
"  ...   ...  .....  ...     .   ...   ...   .     ...   ..           .      .         .      .  ",
"                                                                                                ",
"  ...   ...  ....   ...  ...   ..... .....  ...  .   .  ...    ... .   . .     .   . .   .  ... ",
" .   . .   . .   . .   . .  .  .     .     .   . .   .   .      .  .  .  .     .. .. .   . .   .",
"     . .   . .   . .     .   . .     .     .     .   .   .      .  . .   .     . . . ..  . .   .",
"  .. . .   . ....  .     .   . ....  ....  . ... .....   .      .  ..    .     . . . . . . .   .",
" . . . ..... .   . .     .   . .     .     .   . .   .   .      .  . .   .     .   . .  .. .   .",
" . . . .   . .   . .   . .  .  .     .     .   . .   .   .   .  .  .  .  .     .   . .   . .   .",
"  ...  .   . ....   ...  ...   ..... .      .... .   .  ...   ..   .   . ..... .   . .   .  ... ",
"                                                                                                ",
" ....   ...  ....   .... ..... .   . .   . .   . .   . .   . .....  ...         ...    .        ",
" .   . .   . .   . .       .   .   . .   . .   . .   . .   .     .  .    .        .   . .       ",
" .   . .   . .   . .       .   .   . .   . .   .  . .  .   .    .   .     .       .  .   .      ",
" ....  .   . ....   ...    .   .   . .   . . . .   .    . .    .    .      .      .             ",
" .     . . . . .       .   .   .   . .   . . . .  . .    .    .     .       .     .             ",
" .     .  .  .  .      .   .   .   .  . .  . . . .   .   .   .      .        .    .             ",
" .      .. . .   . ....    .    ...    .    . .  .   .   .   .....  ...         ...        .....",
"                                                                                                ",
"  .          .               .         ..        .       .      .  .      ..                    ",
"   .         .               .        .  .  .... .                 .       .                    ",
"    .   ...  . ..   ...   .. .  ...   .    .   . . ..   ..     ..  .  .    .   .. .  . ..   ... ",
"           . ..  . .     .  .. .   . ...   .   . ..  .   .      .  . .     .   . . . ..  . .   .",
"        .... .   . .     .   . .....  .     .... .   .   .      .  ..      .   . . . .   . .   .",
"       .   . .   . .   . .   . .      .        . .   .   .   .  .  . .     .   .   . .   . .   .",
"        .... ....   ...   ....  ...   .     ...  .   .  ...   ..   .  .   ...  .   . .   .  ... ",
"                                                                                                ",
"                                                                      .    .     .    . .       ",
"                          .                                          .     .      .  . .        ",
" ....   .. . . ..   ...   .    .   . .   . .   . .   . .   . .....   .     .      .             ",
" .   . .  .. ..  . .     ...   .   . .   . .   .  . .  .   .    .   .      .       .            ",
" ....   .... .      ...   .    .   . .   . . . .   .    ....   .     .     .      .             ",
" .         . .         .  .  . .  ..  . .  . . .  . .      .  .      .     .      .             ",
" .         . .     ....    ..   .. .   .    . .  .   .  ...  .....    .    .     .              ",
"                                                                                                "};
