/* XPM */
static char * lc_meter_icons_v_xpm[] = {
"224 32 2 1",
" 	c #FFFFFFFFFFFF",
".	c #000000000000",
"                                                                                                                                                                                                                                ",
"                                                                                                                   ..      ..      ..      ..      ..      ..      ..      ..      ..      ..      ..      ..      ..      ..   ",
"                                                                                                                   ..      ..      ..      ..      ..      ..      ..      ..      ..      ..      ..      ..      ..      ..   ",
"                                                                                                                                                                                                                                ",
"                                                                                                                                                                                                                                ",
"                                                                                                         ......                                                                                                          ...... ",
"                                                                                                                                                                                                                                ",
"                                                                                                 ......  ......                                                                                                  ......  ...... ",
"                                                                                                                                                                                                                                ",
"                                                                                         ......  ......  ......                                                                                          ......  ......  ...... ",
"                                                                                                                                                                                                                                ",
"                                                                                 ......  ......  ......  ......                                                                                  ......  ......  ......  ...... ",
"                                                                                                                                                                                                                                ",
"                                                                         ......  ......  ......  ......  ......                                                                          ......  ......  ......  ......  ...... ",
"                                                                                                                                                                                                                                ",
"                                                                 ......  ......  ......  ......  ......  ......                                                                  ......  ......  ......  ......  ......  ...... ",
"                                                                                                                                                                                                                                ",
"                                                         ......  ......  ......  ......  ......  ......  ......                                                          ......  ......  ......  ......  ......  ......  ...... ",
"                                                                                                                                                                                                                                ",
"                                                 ......  ......  ......  ......  ......  ......  ......  ......                                                  ......  ......  ......  ......  ......  ......  ......  ...... ",
"                                                                                                                                                                                                                                ",
"                                         ......  ......  ......  ......  ......  ......  ......  ......  ......                                          ......  ......  ......  ......  ......  ......  ......  ......  ...... ",
"                                                                                                                                                                                                                                ",
"                                 ......  ......  ......  ......  ......  ......  ......  ......  ......  ......                                  ......  ......  ......  ......  ......  ......  ......  ......  ......  ...... ",
"                                                                                                                                                                                                                                ",
"                         ......  ......  ......  ......  ......  ......  ......  ......  ......  ......  ......                          ......  ......  ......  ......  ......  ......  ......  ......  ......  ......  ...... ",
"                                                                                                                                                                                                                                ",
"                 ......  ......  ......  ......  ......  ......  ......  ......  ......  ......  ......  ......                  ......  ......  ......  ......  ......  ......  ......  ......  ......  ......  ......  ...... ",
"                                                                                                                                                                                                                                ",
"         ......  ......  ......  ......  ......  ......  ......  ......  ......  ......  ......  ......  ......          ......  ......  ......  ......  ......  ......  ......  ......  ......  ......  ......  ......  ...... ",
" ......  ......  ......  ......  ......  ......  ......  ......  ......  ......  ......  ......  ......  ......  ......  ......  ......  ......  ......  ......  ......  ......  ......  ......  ......  ......  ......  ...... ",
"                                                                                                                                                                                                                                "};
